<?xml version="1.0" encoding="UTF-8"?>
<svg version="1.1" xmlns="http://www.w3.org/2000/svg" width="70" height="70">
<path d="M0 0 C0.94147888 -0.01283524 1.88295776 -0.02567047 2.85296631 -0.03889465 C4.38416107 -0.04997505 4.38416107 -0.04997505 5.94628906 -0.0612793 C6.99463928 -0.06935104 8.0429895 -0.07742279 9.12310791 -0.08573914 C11.34572695 -0.09958739 13.56836733 -0.11030621 15.79101562 -0.11816406 C19.18433183 -0.13535829 22.57666923 -0.1792365 25.96972656 -0.22338867 C28.12857356 -0.2335171 30.28742885 -0.24203273 32.44628906 -0.2487793 C33.96533844 -0.27504143 33.96533844 -0.27504143 35.51507568 -0.30183411 C41.50905906 -0.28345445 44.89150506 0.19947404 49.46191406 4.17700195 C52.98291909 8.17381847 54.57427312 10.5013998 54.65478516 15.79101562 C54.67084808 16.74928757 54.68691101 17.70755951 54.70346069 18.69487 C54.74794966 23.08937895 54.78899477 27.48373628 54.81201172 31.87841797 C54.82855007 34.19362454 54.85581174 36.5087805 54.89404297 38.82373047 C54.94892953 42.16441299 54.97070674 45.50389741 54.98535156 48.8449707 C55.00802094 49.87438278 55.03069031 50.90379486 55.05404663 51.96440125 C55.03756058 57.59869745 54.59801103 61.46094897 50.84573364 65.81913757 C45.57001245 70.99590627 40.49335279 70.61706671 33.43066406 70.57543945 C31.82765442 70.57974472 31.82765442 70.57974472 30.19226074 70.58413696 C27.9362739 70.58617543 25.68026929 70.58066082 23.42431641 70.56811523 C19.97420675 70.55205916 16.5252686 70.567972 13.07519531 70.5871582 C10.88118231 70.58517573 8.68717004 70.58133198 6.49316406 70.57543945 C5.46284058 70.58151215 4.43251709 70.58758484 3.37097168 70.59384155 C-2.72079262 70.53411463 -6.60104789 70.09178971 -11.08496094 65.6418457 C-14.21267748 61.67127048 -15.65568887 59.64812182 -15.71508789 54.63891602 C-15.72792313 53.69743713 -15.74075836 52.75595825 -15.75398254 51.78594971 C-15.76136948 50.7651532 -15.76875641 49.74435669 -15.77636719 48.69262695 C-15.78847481 47.12010162 -15.78847481 47.12010162 -15.80082703 45.51580811 C-15.81467528 43.29318906 -15.82539411 41.07054868 -15.83325195 38.84790039 C-15.85044618 35.45458419 -15.89432439 32.06224679 -15.93847656 28.66918945 C-15.94860499 26.51034246 -15.95712062 24.35148717 -15.96386719 22.19262695 C-15.98137527 21.17992737 -15.99888336 20.16722778 -16.016922 19.12384033 C-15.99854234 13.12985695 -15.51561386 9.74741096 -11.53808594 5.17700195 C-7.57266988 1.68365924 -5.25113485 0.06226781 0 0 Z " fill="#F34054" transform="translate(15.5380859375,-0.177001953125)"/>
<path d="M0 0 C0.94147888 -0.01283524 1.88295776 -0.02567047 2.85296631 -0.03889465 C4.38416107 -0.04997505 4.38416107 -0.04997505 5.94628906 -0.0612793 C6.99463928 -0.06935104 8.0429895 -0.07742279 9.12310791 -0.08573914 C11.34572695 -0.09958739 13.56836733 -0.11030621 15.79101562 -0.11816406 C19.18433183 -0.13535829 22.57666923 -0.1792365 25.96972656 -0.22338867 C28.12857356 -0.2335171 30.28742885 -0.24203273 32.44628906 -0.2487793 C33.96533844 -0.27504143 33.96533844 -0.27504143 35.51507568 -0.30183411 C41.3563882 -0.28392259 44.87624404 0.17796638 49.46191406 4.17700195 C51.83691406 6.92700195 51.83691406 6.92700195 53.46191406 9.17700195 C52.47191406 9.50700195 51.48191406 9.83700195 50.46191406 10.17700195 C49.47191406 9.68200195 49.47191406 9.68200195 48.46191406 9.17700195 C48.95691406 10.66200195 48.95691406 10.66200195 49.46191406 12.17700195 C44.46191406 12.17700195 39.46191406 12.17700195 34.46191406 12.17700195 C34.74551293 13.61611535 35.03912805 15.05325713 35.33691406 16.48950195 C35.49933594 17.29000977 35.66175781 18.09051758 35.82910156 18.9152832 C36.40670406 21.43001313 36.40670406 21.43001313 38.46191406 24.17700195 C38.77082499 28.42452726 38.79238107 31.53564725 36.46191406 35.17700195 C35.96691406 33.19700195 35.96691406 33.19700195 35.46191406 31.17700195 C36.12191406 35.13700195 36.78191406 39.09700195 37.46191406 43.17700195 C36.47191406 43.83700195 35.48191406 44.49700195 34.46191406 45.17700195 C34.21169837 48.26066066 34.21169837 48.26066066 34.46191406 51.17700195 C33.47191406 50.84700195 32.48191406 50.51700195 31.46191406 50.17700195 C31.12858073 48.84366862 30.7952474 47.51033529 30.46191406 46.17700195 C29.47191406 45.84700195 28.48191406 45.51700195 27.46191406 45.17700195 C27.46191406 42.86700195 27.46191406 40.55700195 27.46191406 38.17700195 C28.12191406 38.17700195 28.78191406 38.17700195 29.46191406 38.17700195 C29.46191406 37.18700195 29.46191406 36.19700195 29.46191406 35.17700195 C30.12191406 35.17700195 30.78191406 35.17700195 31.46191406 35.17700195 C31.46191406 31.87700195 31.46191406 28.57700195 31.46191406 25.17700195 C32.12191406 25.17700195 32.78191406 25.17700195 33.46191406 25.17700195 C32.84342669 22.90421097 32.21744144 20.63395333 31.58691406 18.36450195 C31.23886719 17.09993164 30.89082031 15.83536133 30.53222656 14.5324707 C29.60491111 11.09291482 29.60491111 11.09291482 27.46191406 8.17700195 C26.47191406 8.50700195 25.48191406 8.83700195 24.46191406 9.17700195 C24.46191406 8.51700195 24.46191406 7.85700195 24.46191406 7.17700195 C23.80191406 7.17700195 23.14191406 7.17700195 22.46191406 7.17700195 C22.95691406 10.14700195 22.95691406 10.14700195 23.46191406 13.17700195 C24.12191406 13.17700195 24.78191406 13.17700195 25.46191406 13.17700195 C25.46191406 13.83700195 25.46191406 14.49700195 25.46191406 15.17700195 C24.47191406 15.17700195 23.48191406 15.17700195 22.46191406 15.17700195 C22.46191406 16.82700195 22.46191406 18.47700195 22.46191406 20.17700195 C23.12191406 20.17700195 23.78191406 20.17700195 24.46191406 20.17700195 C24.95691406 23.64200195 24.95691406 23.64200195 25.46191406 27.17700195 C20.58691406 26.30200195 20.58691406 26.30200195 19.46191406 25.17700195 C17.44227207 25.10456142 15.42024283 25.09323007 13.39941406 25.11450195 C12.2946875 25.12352539 11.18996094 25.13254883 10.05175781 25.1418457 C9.19710938 25.15344727 8.34246094 25.16504883 7.46191406 25.17700195 C7.46191406 25.83700195 7.46191406 26.49700195 7.46191406 27.17700195 C10.10191406 27.17700195 12.74191406 27.17700195 15.46191406 27.17700195 C14.46191406 29.17700195 14.46191406 29.17700195 11.71191406 30.36450195 C8.41769614 31.18805643 6.67169702 31.12105576 3.46191406 30.17700195 C3.46191406 29.18700195 3.46191406 28.19700195 3.46191406 27.17700195 C2.14191406 27.17700195 0.82191406 27.17700195 -0.53808594 27.17700195 C-0.20808594 26.18700195 0.12191406 25.19700195 0.46191406 24.17700195 C1.78191406 24.17700195 3.10191406 24.17700195 4.46191406 24.17700195 C4.13191406 21.53700195 3.80191406 18.89700195 3.46191406 16.17700195 C0.91939804 16.42132192 0.91939804 16.42132192 -1.53808594 18.17700195 C-2.61817377 21.45525849 -3.11538825 24.75756689 -3.53808594 28.17700195 C-2.87808594 28.50700195 -2.21808594 28.83700195 -1.53808594 29.17700195 C-1.86808594 29.50700195 -2.19808594 29.83700195 -2.53808594 30.17700195 C-1.21808594 30.50700195 0.10191406 30.83700195 1.46191406 31.17700195 C1.46191406 31.83700195 1.46191406 32.49700195 1.46191406 33.17700195 C-0.02308594 33.67200195 -0.02308594 33.67200195 -1.53808594 34.17700195 C-1.86808594 36.15700195 -2.19808594 38.13700195 -2.53808594 40.17700195 C-3.19808594 40.17700195 -3.85808594 40.17700195 -4.53808594 40.17700195 C-4.66183594 40.94012695 -4.78558594 41.70325195 -4.91308594 42.48950195 C-5.53808594 45.17700195 -5.53808594 45.17700195 -7.53808594 48.17700195 C-8.52808594 48.17700195 -9.51808594 48.17700195 -10.53808594 48.17700195 C-10.75464844 49.10512695 -10.75464844 49.10512695 -10.97558594 50.05200195 C-11.53808594 52.17700195 -11.53808594 52.17700195 -12.53808594 54.17700195 C-13.19808594 54.17700195 -13.85808594 54.17700195 -14.53808594 54.17700195 C-14.53808594 55.82700195 -14.53808594 57.47700195 -14.53808594 59.17700195 C-14.86808594 59.17700195 -15.19808594 59.17700195 -15.53808594 59.17700195 C-15.63968524 52.45105929 -15.70963505 45.72531527 -15.7578125 38.9987793 C-15.7779011 36.71159469 -15.80517722 34.42446127 -15.83984375 32.13745117 C-15.88848152 28.84581861 -15.91108273 25.55486638 -15.92871094 22.26293945 C-15.94935608 21.24396576 -15.97000122 20.22499207 -15.99127197 19.17514038 C-15.99316462 13.15785927 -15.53906781 9.76142231 -11.53808594 5.17700195 C-7.57266988 1.68365924 -5.25113485 0.06226781 0 0 Z " fill="#040B24" transform="translate(15.5380859375,-0.177001953125)"/>
<path d="M0 0 C0.33 2.64 0.66 5.28 1 8 C0.360625 8.12375 -0.27875 8.2475 -0.9375 8.375 C-1.618125 8.58125 -2.29875 8.7875 -3 9 C-3.33 9.66 -3.66 10.32 -4 11 C-2.68 11 -1.36 11 0 11 C0.33 11.99 0.66 12.98 1 14 C3.01508358 14.73323796 3.01508358 14.73323796 5 15 C5.33 14.34 5.66 13.68 6 13 C8.5625 12.375 8.5625 12.375 11 12 C8.69 11.67 6.38 11.34 4 11 C4 10.34 4 9.68 4 9 C5.95689659 8.77857745 7.91561952 8.5732432 9.875 8.375 C11.51082031 8.20097656 11.51082031 8.20097656 13.1796875 8.0234375 C14.11039063 8.01570313 15.04109375 8.00796875 16 8 C18 10 18 10 18.5 13.5625 C18.7475 15.2640625 18.7475 15.2640625 19 17 C19.66 17.33 20.32 17.66 21 18 C20.72001908 21.63975198 20.46510657 24.29303801 18.4375 27.375 C14.96821997 29.68785335 12.1406669 29.72395554 8 30 C7.67 29.01 7.34 28.02 7 27 C4.69 27 2.38 27 0 27 C0.33 28.32 0.66 29.64 1 31 C2.32 31 3.64 31 5 31 C5 32.32 5 33.64 5 35 C3.35 34.34 1.7 33.68 0 33 C0 32.34 0 31.68 0 31 C-0.66 31 -1.32 31 -2 31 C-1.34 32.98 -0.68 34.96 0 37 C0.99 37 1.98 37 3 37 C3 37.66 3 38.32 3 39 C1.88625 39.45375 0.7725 39.9075 -0.375 40.375 C-3.96199008 41.72465986 -3.96199008 41.72465986 -6 44 C-5.20162663 46.65803152 -5.20162663 46.65803152 -3 49 C0.23587437 49.65807794 3.40217488 49.46871517 6.6875 49.3125 C8.02651367 49.27866211 8.02651367 49.27866211 9.39257812 49.24414062 C11.59674272 49.18520574 13.79752672 49.10300818 16 49 C14.25215171 48.63536268 12.50159498 48.2836922 10.75 47.9375 C9.28820313 47.64166016 9.28820313 47.64166016 7.796875 47.33984375 C5.08265017 47.01004269 3.56646849 47.21580129 1 48 C0.01 48 -0.98 48 -2 48 C-2 46.35 -2 44.7 -2 43 C-1.67 43.99 -1.34 44.98 -1 46 C-0.34 46 0.32 46 1 46 C1 44.68 1 43.36 1 42 C12 42 12 42 15 43 C14.01 43.495 14.01 43.495 13 44 C13.495 44.495 13.495 44.495 14 45 C14.66 45 15.32 45 16 45 C16.33 44.01 16.66 43.02 17 42 C22.61 42 28.22 42 34 42 C34 43.65 34 45.3 34 47 C33 48 33 48 29.9375 48.0625 C28.968125 48.041875 27.99875 48.02125 27 48 C29.96895056 48.98965019 31.9086614 49.23779528 35 49 C35.66 48.34 36.32 47.68 37 47 C39.6015625 47.0234375 39.6015625 47.0234375 42.625 47.375 C43.62789062 47.48585937 44.63078125 47.59671875 45.6640625 47.7109375 C46.82035156 47.85402344 46.82035156 47.85402344 48 48 C42.23564545 53.91604809 42.23564545 53.91604809 38.9329071 54.14044189 C37.65647087 54.1506839 37.65647087 54.1506839 36.35424805 54.16113281 C34.90715706 54.17554413 34.90715706 54.17554413 33.43083191 54.19024658 C32.38502457 54.19449646 31.33921722 54.19874634 30.26171875 54.203125 C28.65234184 54.21167511 28.65234184 54.21167511 27.01045227 54.22039795 C24.73655181 54.22985683 22.46263758 54.23638544 20.1887207 54.24023438 C16.71215825 54.24993122 13.23618902 54.28094322 9.75976562 54.3125 C7.55208685 54.31903079 5.34440384 54.32428097 3.13671875 54.328125 C2.0969841 54.3404718 1.05724945 54.3528186 -0.01399231 54.36553955 C-7.18602047 54.34344519 -10.59496707 53.35158775 -15.8125 48.25 C-18.35609985 44.47093737 -18.44611815 42.46118145 -18 38 C-17.34 38 -16.68 38 -16 38 C-15.67 37.01 -15.34 36.02 -15 35 C-14.67 34.01 -14.34 33.02 -14 32 C-13.01 31.67 -12.02 31.34 -11 31 C-9.28432339 27.49705129 -9.28432339 27.49705129 -8 24 C-7.34 24 -6.68 24 -6 24 C-6 21.69 -6 19.38 -6 17 C-4.68 17 -3.36 17 -2 17 C-2 16.34 -2 15.68 -2 15 C-3.98 15 -5.96 15 -8 15 C-7.34 14.34 -6.68 13.68 -6 13 C-6.33 12.67 -6.66 12.34 -7 12 C-7.46376812 4.92753623 -7.46376812 4.92753623 -5.75 1.5 C-4 0 -4 0 0 0 Z " fill="#F5797E" transform="translate(19,16)"/>
<path d="M0 0 C4.0200263 -0.09941096 8.03956963 -0.17172063 12.06054688 -0.21972656 C13.42623368 -0.23975319 14.79183569 -0.26698332 16.15722656 -0.30175781 C18.12787102 -0.35066432 20.09915983 -0.37091347 22.0703125 -0.390625 C23.84559326 -0.4220459 23.84559326 -0.4220459 25.65673828 -0.45410156 C30.92265203 0.26114596 33.96607358 2.80282204 37.375 6.75 C37.91125 7.4925 38.4475 8.235 39 9 C38.01 9.33 37.02 9.66 36 10 C35.34 9.67 34.68 9.34 34 9 C34.495 10.485 34.495 10.485 35 12 C30 12 25 12 20 12 C20.28359887 13.4391134 20.57721399 14.87625518 20.875 16.3125 C21.03742187 17.11300781 21.19984375 17.91351562 21.3671875 18.73828125 C21.94478999 21.25301118 21.94478999 21.25301118 24 24 C24.30891093 28.2475253 24.33046701 31.3586453 22 35 C21.67 33.68 21.34 32.36 21 31 C21.66 34.96 22.32 38.92 23 43 C22.01 43.66 21.02 44.32 20 45 C19.7497843 48.08365871 19.7497843 48.08365871 20 51 C18.515 50.505 18.515 50.505 17 50 C16.66666667 48.66666667 16.33333333 47.33333333 16 46 C14.515 45.505 14.515 45.505 13 45 C13 42.69 13 40.38 13 38 C13.66 38 14.32 38 15 38 C15 37.01 15 36.02 15 35 C15.66 35 16.32 35 17 35 C17 31.7 17 28.4 17 25 C17.66 25 18.32 25 19 25 C18.38151263 22.72720902 17.75552738 20.45695137 17.125 18.1875 C16.77695312 16.92292969 16.42890625 15.65835937 16.0703125 14.35546875 C15.14299705 10.91591287 15.14299705 10.91591287 13 8 C12.01 8.33 11.02 8.66 10 9 C10 8.34 10 7.68 10 7 C9.34 7 8.68 7 8 7 C7.67 7.66 7.34 8.32 7 9 C7 8.01 7 7.02 7 6 C5.9275 6.020625 4.855 6.04125 3.75 6.0625 C0.85209576 6.0142016 -1.28612141 5.86844115 -4 5 C-4 4.34 -4 3.68 -4 3 C-1.36 3 1.28 3 4 3 C2.35 2.67 0.7 2.34 -1 2 C-0.67 1.34 -0.34 0.68 0 0 Z " fill="#291C1B" transform="translate(30,0)"/>
<path d="M0 0 C0.33 2.64 0.66 5.28 1 8 C0.360625 8.12375 -0.27875 8.2475 -0.9375 8.375 C-1.618125 8.58125 -2.29875 8.7875 -3 9 C-3.33 9.66 -3.66 10.32 -4 11 C-2.68 11 -1.36 11 0 11 C0.33 11.99 0.66 12.98 1 14 C3.01508358 14.73323796 3.01508358 14.73323796 5 15 C5.33 14.34 5.66 13.68 6 13 C8.5625 12.375 8.5625 12.375 11 12 C8.69 11.67 6.38 11.34 4 11 C4 10.34 4 9.68 4 9 C5.95689659 8.77857745 7.91561952 8.5732432 9.875 8.375 C11.51082031 8.20097656 11.51082031 8.20097656 13.1796875 8.0234375 C14.11039063 8.01570313 15.04109375 8.00796875 16 8 C18 10 18 10 18.5 13.5625 C18.7475 15.2640625 18.7475 15.2640625 19 17 C19.66 17.33 20.32 17.66 21 18 C20.72001908 21.63975198 20.46510657 24.29303801 18.4375 27.375 C14.96821997 29.68785335 12.1406669 29.72395554 8 30 C7.67 29.01 7.34 28.02 7 27 C4.69 27 2.38 27 0 27 C0.33 28.32 0.66 29.64 1 31 C2.32 31 3.64 31 5 31 C5 32.32 5 33.64 5 35 C3.35 34.34 1.7 33.68 0 33 C0 32.34 0 31.68 0 31 C-0.66 31 -1.32 31 -2 31 C-1.67 32.98 -1.34 34.96 -1 37 C-2.98 37.495 -2.98 37.495 -5 38 C-4.67 37.01 -4.34 36.02 -4 35 C-3.65777745 30.35008069 -3.65777745 30.35008069 -5 26 C-6.48592838 23.02814323 -6.1255457 20.2641882 -6 17 C-4.68 17 -3.36 17 -2 17 C-2 16.34 -2 15.68 -2 15 C-3.98 15 -5.96 15 -8 15 C-7.34 14.34 -6.68 13.68 -6 13 C-6.33 12.67 -6.66 12.34 -7 12 C-7.46376812 4.92753623 -7.46376812 4.92753623 -5.75 1.5 C-4 0 -4 0 0 0 Z " fill="#F1CEC2" transform="translate(19,16)"/>
<path d="M0 0 C0.66 0 1.32 0 2 0 C2 0.66 2 1.32 2 2 C3.32 1.34 4.64 0.68 6 0 C9.08697772 6.90823655 10.91834274 13.51379318 12 21 C11.34 20.67 10.68 20.34 10 20 C10.020625 20.94875 10.04125 21.8975 10.0625 22.875 C10 26 10 26 9 28 C8.34 28 7.68 28 7 28 C7 28.99 7 29.98 7 31 C6.34 31 5.68 31 5 31 C5.04125 31.928125 5.0825 32.85625 5.125 33.8125 C5 37 5 37 3 40 C4.485 40.495 4.485 40.495 6 41 C4.515 41.495 4.515 41.495 3 42 C2.67 42.66 2.34 43.32 2 44 C1.484375 44.495 0.96875 44.99 0.4375 45.5 C-1.23063512 46.89439669 -1.23063512 46.89439669 -1 49 C-5.95 49.495 -5.95 49.495 -11 50 C-12 47 -12 47 -11 44 C-11.99 44 -12.98 44 -14 44 C-14 42.68 -14 41.36 -14 40 C-15.32 40 -16.64 40 -18 40 C-18.33 38.68 -18.66 37.36 -19 36 C-16.29120665 34.64560332 -13.99066732 34.93498549 -11 35 C-10.67 35.99 -10.34 36.98 -10 38 C-5.88937957 37.76284882 -3.66939019 37.63415913 -0.625 34.75 C0.96606467 32.05742902 1.64740907 30.08517061 2 27 C1.01 26.67 0.02 26.34 -1 26 C-1 24.02 -1 22.04 -1 20 C0.32 20 1.64 20 3 20 C2.67 17.69 2.34 15.38 2 13 C1.34 13 0.68 13 0 13 C0 11.35 0 9.7 0 8 C0.99 8 1.98 8 3 8 C3 7.34 3 6.68 3 6 C2.34 6 1.68 6 1 6 C0.67 4.02 0.34 2.04 0 0 Z " fill="#A6776C" transform="translate(38,7)"/>
<path d="M0 0 C0.66 0 1.32 0 2 0 C2 0.66 2 1.32 2 2 C4.64 2.66 7.28 3.32 10 4 C10 5.65 10 7.3 10 9 C11.60517097 8.91266424 13.20921662 8.80447776 14.8125 8.6875 C15.70582031 8.62949219 16.59914063 8.57148437 17.51953125 8.51171875 C20.38303514 7.92098015 21.0162698 7.02720922 23 5 C24.32 5 25.64 5 27 5 C27.99 4.67 28.98 4.34 30 4 C32 6 32 6 32 9 C32.763125 8.938125 33.52625 8.87625 34.3125 8.8125 C37 9 37 9 38.875 10.1875 C40 12 40 12 39.8125 14.5625 C39 17 39 17 37 19 C34.08047432 18.98251781 31.27702115 18.86055367 28.375 18.625 C27.57320312 18.56828125 26.77140625 18.5115625 25.9453125 18.453125 C23.96284502 18.31152018 21.98130949 18.15697741 20 18 C20 17.67 20 17.34 20 17 C21.98 17 23.96 17 26 17 C26.33 15.68 26.66 14.36 27 13 C27 13.99 27 14.98 27 16 C29.64 16 32.28 16 35 16 C35.33 14.35 35.66 12.7 36 11 C34.66195312 11.10828125 34.66195312 11.10828125 33.296875 11.21875 C31.54117188 11.35796875 31.54117188 11.35796875 29.75 11.5 C28.58984375 11.5928125 27.4296875 11.685625 26.234375 11.78125 C23.82731342 11.94404644 21.41256049 12 19 12 C18.67 12.66 18.34 13.32 18 14 C17.34 14 16.68 14 16 14 C15.67 14.66 15.34 15.32 15 16 C14.67 14.68 14.34 13.36 14 12 C13.01 12.495 13.01 12.495 12 13 C12 12.34 12 11.68 12 11 C11.443125 11.185625 10.88625 11.37125 10.3125 11.5625 C7.600867 12.07551165 5.65628961 11.6640724 3 11 C3 12.32 3 13.64 3 15 C2.34 15 1.68 15 1 15 C0.67 15.66 0.34 16.32 0 17 C0.61875 16.814375 1.2375 16.62875 1.875 16.4375 C4 16 4 16 6 17 C6.33 15.68 6.66 14.36 7 13 C7 13.99 7 14.98 7 16 C8.5778125 15.9690625 8.5778125 15.9690625 10.1875 15.9375 C13.32704904 15.98896802 15.96883396 16.26517187 19 17 C18.67 17.66 18.34 18.32 18 19 C14.89601022 19.08710289 11.79233452 19.14042309 8.6875 19.1875 C7.80642578 19.21263672 6.92535156 19.23777344 6.01757812 19.26367188 C4.74624023 19.27817383 4.74624023 19.27817383 3.44921875 19.29296875 C2.66893311 19.3086792 1.88864746 19.32438965 1.0847168 19.34057617 C-1.53917095 18.91191668 -2.38324546 18.0686095 -4 16 C-4.6875 13.8125 -4.6875 13.8125 -5 12 C0.5 8 0.5 8 5 8 C4.0409375 7.690625 4.0409375 7.690625 3.0625 7.375 C1 6 1 6 0.25 2.875 C0.1675 1.92625 0.085 0.9775 0 0 Z " fill="#4C2D26" transform="translate(17,47)"/>
<path d="M0 0 C0.99 0.33 1.98 0.66 3 1 C3 1.66 3 2.32 3 3 C4.32 3.33 5.64 3.66 7 4 C6.34 4.66 5.68 5.32 5 6 C5 6.66 5 7.32 5 8 C6.98 8 8.96 8 11 8 C11 8.66 11 9.32 11 10 C10.34 10 9.68 10 9 10 C9 10.66 9 11.32 9 12 C7.5 13.625 7.5 13.625 6 15 C6.66 15.33 7.32 15.66 8 16 C7.34 17.32 6.68 18.64 6 20 C4.35 19.01 2.7 18.02 1 17 C1.6954344 20.00384054 1.6954344 20.00384054 3 23 C5.03243548 23.96877057 5.03243548 23.96877057 7 24 C6.67 24.66 6.34 25.32 6 26 C5.01 26 4.02 26 3 26 C3.33 26.66 3.66 27.32 4 28 C2.35 28 0.7 28 -1 28 C0.32 30.64 1.64 33.28 3 36 C0 35 0 35 -1.53515625 32.48828125 C-2.03917969 31.44027344 -2.54320312 30.39226563 -3.0625 29.3125 C-3.56910156 28.27738281 -4.07570312 27.24226563 -4.59765625 26.17578125 C-8.59012826 17.13433349 -8.59012826 17.13433349 -7 13 C-6.34 13.33 -5.68 13.66 -5 14 C-4.91840426 9.83861737 -5.01751476 6.0527516 -6 2 C-5.67 2.66 -5.34 3.32 -5 4 C-3.35 3.34 -1.7 2.68 0 2 C0 1.34 0 0.68 0 0 Z " fill="#D0978F" transform="translate(58,17)"/>
<path d="M0 0 C2.01822917 0.06510417 4.03645833 0.13020833 6.0546875 0.1953125 C6.3846875 0.8553125 6.7146875 1.5153125 7.0546875 2.1953125 C4.7446875 2.5253125 2.4346875 2.8553125 0.0546875 3.1953125 C0.0546875 3.8553125 0.0546875 4.5153125 0.0546875 5.1953125 C-0.2753125 5.5253125 -0.6053125 5.8553125 -0.9453125 6.1953125 C-0.6153125 7.1853125 -0.2853125 8.1753125 0.0546875 9.1953125 C1.0446875 9.5253125 2.0346875 9.8553125 3.0546875 10.1953125 C2.7246875 13.1653125 2.3946875 16.1353125 2.0546875 19.1953125 C4.6946875 19.1953125 7.3346875 19.1953125 10.0546875 19.1953125 C9.0546875 21.1953125 9.0546875 21.1953125 6.3046875 22.3828125 C3.01046958 23.20636698 1.26447045 23.13936631 -1.9453125 22.1953125 C-1.9453125 21.2053125 -1.9453125 20.2153125 -1.9453125 19.1953125 C-3.2653125 19.1953125 -4.5853125 19.1953125 -5.9453125 19.1953125 C-5.6153125 18.2053125 -5.2853125 17.2153125 -4.9453125 16.1953125 C-3.6253125 16.1953125 -2.3053125 16.1953125 -0.9453125 16.1953125 C-1.2753125 13.5553125 -1.6053125 10.9153125 -1.9453125 8.1953125 C-4.48782852 8.43963246 -4.48782852 8.43963246 -6.9453125 10.1953125 C-8.02540033 13.47356904 -8.52261481 16.77587744 -8.9453125 20.1953125 C-8.2853125 20.5253125 -7.6253125 20.8553125 -6.9453125 21.1953125 C-7.2753125 21.5253125 -7.6053125 21.8553125 -7.9453125 22.1953125 C-6.6253125 22.5253125 -5.3053125 22.8553125 -3.9453125 23.1953125 C-3.9453125 23.8553125 -3.9453125 24.5153125 -3.9453125 25.1953125 C-4.9353125 25.5253125 -5.9253125 25.8553125 -6.9453125 26.1953125 C-7.2753125 28.1753125 -7.6053125 30.1553125 -7.9453125 32.1953125 C-8.6053125 32.1953125 -9.2653125 32.1953125 -9.9453125 32.1953125 C-10.0690625 32.9584375 -10.1928125 33.7215625 -10.3203125 34.5078125 C-10.9453125 37.1953125 -10.9453125 37.1953125 -12.9453125 40.1953125 C-13.9353125 40.1953125 -14.9253125 40.1953125 -15.9453125 40.1953125 C-16.0690625 40.8140625 -16.1928125 41.4328125 -16.3203125 42.0703125 C-16.9453125 44.1953125 -16.9453125 44.1953125 -18.9453125 46.1953125 C-18.03159375 40.58246874 -16.96984209 35.11349639 -15.4453125 29.6328125 C-14.57485027 26.49479617 -13.71938563 23.35859212 -12.9453125 20.1953125 C-12.6153125 20.5253125 -12.2853125 20.8553125 -11.9453125 21.1953125 C-10.68293519 18.67055788 -10.84674846 16.88330784 -10.8828125 14.0703125 C-10.89183594 13.16023438 -10.90085937 12.25015625 -10.91015625 11.3125 C-10.92175781 10.61382812 -10.93335938 9.91515625 -10.9453125 9.1953125 C-9.9553125 9.1953125 -8.9653125 9.1953125 -7.9453125 9.1953125 C-7.6153125 8.2053125 -7.2853125 7.2153125 -6.9453125 6.1953125 C-6.2853125 6.1953125 -5.6253125 6.1953125 -4.9453125 6.1953125 C-4.8215625 5.5765625 -4.6978125 4.9578125 -4.5703125 4.3203125 C-3.76206061 1.57225609 -2.9499914 0.29618388 0 0 Z " fill="#4E3439" transform="translate(20.9453125,7.8046875)"/>
<path d="M0 0 C2.68370658 2.38551696 3.86261064 4.71407784 5.25 8 C5.91 7.34 6.57 6.68 7.25 6 C7.25 7.32 7.25 8.64 7.25 10 C7.91 10 8.57 10 9.25 10 C9.58 12.31 9.91 14.62 10.25 17 C5.375 16.125 5.375 16.125 4.25 15 C2.23035801 14.92755947 0.20832876 14.91622812 -1.8125 14.9375 C-2.91722656 14.94652344 -4.02195312 14.95554687 -5.16015625 14.96484375 C-6.01480469 14.97644531 -6.86945312 14.98804688 -7.75 15 C-7.75 12.69 -7.75 10.38 -7.75 8 C-8.74 8 -9.73 8 -10.75 8 C-11.08 6.35 -11.41 4.7 -11.75 3 C-11.09 3 -10.43 3 -9.75 3 C-9.75 2.34 -9.75 1.68 -9.75 1 C-3.57566586 -1.30024213 -3.57566586 -1.30024213 0 0 Z " fill="#161C25" transform="translate(30.75,10)"/>
<path d="M0 0 C1.98 0.66 3.96 1.32 6 2 C6 7.94 6 13.88 6 20 C5.67 18.68 5.34 17.36 5 16 C3.02 16 1.04 16 -1 16 C-1 15.34 -1 14.68 -1 14 C-1.66 13.67 -2.32 13.34 -3 13 C-2.34 12.67 -1.68 12.34 -1 12 C-2.65 10.68 -4.3 9.36 -6 8 C-6 8.66 -6 9.32 -6 10 C-10.75 12 -10.75 12 -13 12 C-15.42857143 4.57142857 -15.42857143 4.57142857 -14 1 C-13.34 1.66 -12.68 2.32 -12 3 C-11.34 2.67 -10.68 2.34 -10 2 C-8.29297265 1.93003986 -6.58331997 1.91559846 -4.875 1.9375 C-3.96492188 1.94652344 -3.05484375 1.95554687 -2.1171875 1.96484375 C-1.41851562 1.97644531 -0.71984375 1.98804688 0 2 C0 1.34 0 0.68 0 0 Z " fill="#635B72" transform="translate(64,9)"/>
<path d="M0 0 C11 0 11 0 14 1 C13.01 1.495 13.01 1.495 12 2 C12.33 2.33 12.66 2.66 13 3 C13.66 3 14.32 3 15 3 C15.33 2.01 15.66 1.02 16 0 C21.61 0 27.22 0 33 0 C33 1.65 33 3.3 33 5 C32 6 32 6 28.9375 6.0625 C27.968125 6.041875 26.99875 6.02125 26 6 C26.99 6.33 27.98 6.66 29 7 C29 7.33 29 7.66 29 8 C26.75026553 8.054138 24.50015617 8.09285491 22.25 8.125 C20.99703125 8.14820312 19.7440625 8.17140625 18.453125 8.1953125 C15.18153435 8.01026778 13.74254765 7.60790957 11 6 C6.98850686 5.21202813 3.9069925 4.74418098 0 6 C-0.99 6 -1.98 6 -3 6 C-3 4.35 -3 2.7 -3 1 C-2.67 1.99 -2.34 2.98 -2 4 C-1.34 4 -0.68 4 0 4 C0 2.68 0 1.36 0 0 Z " fill="#BB4D2A" transform="translate(20,58)"/>
<path d="M0 0 C11.68266667 -0.624 11.68266667 -0.624 16.5625 1.6875 C18.97957642 3.98062379 21.04971251 6.29960193 23 9 C22.01 9.33 21.02 9.66 20 10 C19.34 9.67 18.68 9.34 18 9 C18.33 9.99 18.66 10.98 19 12 C14 12 9 12 4 12 C3.67 10.68 3.34 9.36 3 8 C5.97 7.34 8.94 6.68 12 6 C11.67 6 11.34 6 11 6 C8.33333333 6 5.66666667 6 3 6 C3 4.68 3 3.36 3 2 C2.01 2 1.02 2 0 2 C0 1.34 0 0.68 0 0 Z " fill="#323858" transform="translate(46,0)"/>
<path d="M0 0 C0.91007812 0.00902344 1.82015625 0.01804688 2.7578125 0.02734375 C3.80582031 0.04474609 3.80582031 0.04474609 4.875 0.0625 C2.62672568 4.81769967 -0.14658568 8.07113427 -5.125 10.0625 C-5.785 10.0625 -6.445 10.0625 -7.125 10.0625 C-8.115 11.5475 -8.115 11.5475 -9.125 13.0625 C-10.115 14.5475 -10.115 14.5475 -11.125 16.0625 C-11.785 16.0625 -12.445 16.0625 -13.125 16.0625 C-13.785 19.0325 -14.445 22.0025 -15.125 25.0625 C-15.455 25.0625 -15.785 25.0625 -16.125 25.0625 C-16.74927746 12.40354046 -16.74927746 12.40354046 -14.4375 7.4375 C-9.78663508 2.66093603 -6.71352711 -0.08607086 0 0 Z " fill="#030618" transform="translate(16.125,-0.0625)"/>
<path d="M0 0 C0.66 0 1.32 0 2 0 C2 0.66 2 1.32 2 2 C3.32 1.34 4.64 0.68 6 0 C9.08697772 6.90823655 10.91834274 13.51379318 12 21 C11.34 20.34 10.68 19.68 10 19 C6.61702587 19.17805127 5.23727939 19.78837244 2.6875 22.0625 C2.130625 22.701875 1.57375 23.34125 1 24 C0.34 22.68 -0.32 21.36 -1 20 C0.32 20 1.64 20 3 20 C2.67 17.69 2.34 15.38 2 13 C1.34 13 0.68 13 0 13 C0 11.35 0 9.7 0 8 C0.99 8 1.98 8 3 8 C3 7.34 3 6.68 3 6 C2.34 6 1.68 6 1 6 C0.67 4.02 0.34 2.04 0 0 Z " fill="#444953" transform="translate(38,7)"/>
<path d="M0 0 C0.66 0 1.32 0 2 0 C3.27861615 2.55723229 3.11336609 4.36737102 3.09765625 7.2265625 C3.09443359 8.2578125 3.09121094 9.2890625 3.08789062 10.3515625 C3.07951172 11.43179688 3.07113281 12.51203125 3.0625 13.625 C3.05798828 14.71296875 3.05347656 15.8009375 3.04882812 16.921875 C3.03701776 19.61463789 3.02054778 22.30729188 3 25 C-1.8359375 24.21875 -1.8359375 24.21875 -3.3125 22.25 C-4.08634549 19.71741476 -4.14240685 17.63452674 -4 15 C-4 14.67 -4 14.34 -4 14 C-4.474375 13.566875 -4.94875 13.13375 -5.4375 12.6875 C-7.19147507 10.79320693 -7.5675057 9.50846695 -8 7 C-4.125 7.875 -4.125 7.875 -3 9 C-3 7.68 -3 6.36 -3 5 C-2.67 4.01 -2.34 3.02 -2 2 C-1.34 2 -0.68 2 0 2 C0 1.34 0 0.68 0 0 Z " fill="#FB5C6B" transform="translate(67,27)"/>
<path d="M0 0 C5.28 0 10.56 0 16 0 C16 0.66 16 1.32 16 2 C16.99 2 17.98 2 19 2 C19 3.32 19 4.64 19 6 C24.1693489 5.59443869 24.1693489 5.59443869 29 4 C28 7 28 7 26 8 C23.6670134 8.04022391 21.33293334 8.04320247 19 8 C18.67 9.32 18.34 10.64 18 12 C17.01 10.35 16.02 8.7 15 7 C14.01 7.495 14.01 7.495 13 8 C12.01 8.33 11.02 8.66 10 9 C10 8.34 10 7.68 10 7 C9.34 7 8.68 7 8 7 C7.67 7.66 7.34 8.32 7 9 C7 8.01 7 7.02 7 6 C5.9275 6.020625 4.855 6.04125 3.75 6.0625 C0.85209576 6.0142016 -1.28612141 5.86844115 -4 5 C-4 4.34 -4 3.68 -4 3 C-1.36 3 1.28 3 4 3 C2.35 2.67 0.7 2.34 -1 2 C-0.67 1.34 -0.34 0.68 0 0 Z " fill="#992633" transform="translate(30,0)"/>
<path d="M0 0 C0.66 0 1.32 0 2 0 C2 0.66 2 1.32 2 2 C4.64 2.66 7.28 3.32 10 4 C9.67 6.31 9.34 8.62 9 11 C7.02 11 5.04 11 3 11 C3 12.32 3 13.64 3 15 C2.34 15 1.68 15 1 15 C0.67 15.66 0.34 16.32 0 17 C0.61875 16.814375 1.2375 16.62875 1.875 16.4375 C4 16 4 16 6 17 C6.33 15.68 6.66 14.36 7 13 C7 13.99 7 14.98 7 16 C8.5778125 15.9690625 8.5778125 15.9690625 10.1875 15.9375 C13.32704904 15.98896802 15.96883396 16.26517187 19 17 C18.67 17.66 18.34 18.32 18 19 C14.89601022 19.08710289 11.79233452 19.14042309 8.6875 19.1875 C7.80642578 19.21263672 6.92535156 19.23777344 6.01757812 19.26367188 C4.74624023 19.27817383 4.74624023 19.27817383 3.44921875 19.29296875 C2.66893311 19.3086792 1.88864746 19.32438965 1.0847168 19.34057617 C-1.53917095 18.91191668 -2.38324546 18.0686095 -4 16 C-4.6875 13.8125 -4.6875 13.8125 -5 12 C0.5 8 0.5 8 5 8 C4.0409375 7.690625 4.0409375 7.690625 3.0625 7.375 C1 6 1 6 0.25 2.875 C0.1675 1.92625 0.085 0.9775 0 0 Z " fill="#2B181B" transform="translate(17,47)"/>
<path d="M0 0 C0.33 2.64 0.66 5.28 1 8 C0.360625 8.12375 -0.27875 8.2475 -0.9375 8.375 C-1.618125 8.58125 -2.29875 8.7875 -3 9 C-3.33 9.66 -3.66 10.32 -4 11 C-2.68 11 -1.36 11 0 11 C0.33 11.99 0.66 12.98 1 14 C3.01508358 14.73323796 3.01508358 14.73323796 5 15 C5.33 14.34 5.66 13.68 6 13 C7.32 13.33 8.64 13.66 10 14 C8 16 8 16 4.875 16.125 C3.451875 16.063125 3.451875 16.063125 2 16 C2.33 16.763125 2.66 17.52625 3 18.3125 C4 21 4 21 4 24 C2.35 24.33 0.7 24.66 -1 25 C-1 22.66666667 -1 20.33333333 -1 18 C-4.0109362 20.0072908 -4.63016497 20.83884224 -6 24 C-6 21.69 -6 19.38 -6 17 C-4.68 17 -3.36 17 -2 17 C-2 16.34 -2 15.68 -2 15 C-3.98 15 -5.96 15 -8 15 C-7.34 14.34 -6.68 13.68 -6 13 C-6.33 12.67 -6.66 12.34 -7 12 C-7.46376812 4.92753623 -7.46376812 4.92753623 -5.75 1.5 C-4 0 -4 0 0 0 Z " fill="#D1A79E" transform="translate(19,16)"/>
<path d="M0 0 C2.6015625 0.0234375 2.6015625 0.0234375 5.625 0.375 C6.62789062 0.48585937 7.63078125 0.59671875 8.6640625 0.7109375 C9.82035156 0.85402344 9.82035156 0.85402344 11 1 C5.20303092 6.9495209 5.20303092 6.9495209 1.29443359 7.11352539 C0.17375488 7.10828857 -0.94692383 7.10305176 -2.1015625 7.09765625 C-3.31328125 7.09443359 -4.525 7.09121094 -5.7734375 7.08789062 C-7.04445313 7.07951172 -8.31546875 7.07113281 -9.625 7.0625 C-10.90375 7.05798828 -12.1825 7.05347656 -13.5 7.04882812 C-16.66671292 7.03701203 -19.83333356 7.02053815 -23 7 C-19.57825468 3.14993897 -19.57825468 3.14993897 -17.01708984 2.48583984 C-16.33855957 2.47762207 -15.6600293 2.4694043 -14.9609375 2.4609375 C-13.84332031 2.42613281 -13.84332031 2.42613281 -12.703125 2.390625 C-11.55070312 2.38289063 -11.55070312 2.38289063 -10.375 2.375 C-4.67696073 2.64575008 -4.67696073 2.64575008 0 0 Z " fill="#FBD9D3" transform="translate(56,63)"/>
<path d="M0 0 C3.30562629 2.43572463 5.3229475 4.25888288 7 8 C7.66 8.33 8.32 8.66 9 9 C8.67 6.69 8.34 4.38 8 2 C9.65 1.67 11.3 1.34 13 1 C14.65 4.3 16.3 7.6 18 11 C15.69 11.33 13.38 11.66 11 12 C11 12.66 11 13.32 11 14 C10.01 14 9.02 14 8 14 C7.34 12.68 6.68 11.36 6 10 C5.01 10 4.02 10 3 10 C2.67 10.66 2.34 11.32 2 12 C-0.33333333 12 -2.66666667 12 -5 12 C-0.25 7.125 -0.25 7.125 2 6 C1.34 5.67 0.68 5.34 0 5 C0 3.35 0 1.7 0 0 Z " fill="#7B4840" transform="translate(41,42)"/>
<path d="M0 0 C3 3.625 3 3.625 3 7 C3.99 7.33 4.98 7.66 6 8 C6.6875 10.0625 6.6875 10.0625 7 12 C8.32 12.33 9.64 12.66 11 13 C10.67 13.66 10.34 14.32 10 15 C9.01 15 8.02 15 7 15 C7.33 15.66 7.66 16.32 8 17 C6.35 17 4.7 17 3 17 C4.32 19.64 5.64 22.28 7 25 C4 24 4 24 2.46484375 21.48828125 C1.96082031 20.44027344 1.45679688 19.39226563 0.9375 18.3125 C0.43089844 17.27738281 -0.07570312 16.24226563 -0.59765625 15.17578125 C-4.59012826 6.13433349 -4.59012826 6.13433349 -3 2 C-2.34 2.33 -1.68 2.66 -1 3 C-0.67 2.01 -0.34 1.02 0 0 Z " fill="#B2897D" transform="translate(54,28)"/>
<path d="M0 0 C0.33 0 0.66 0 1 0 C1.32938766 20.09264739 1.32938766 20.09264739 -3 29 C-3.66 29.33 -4.32 29.66 -5 30 C-5 30.66 -5 31.32 -5 32 C-4.34 32.33 -3.68 32.66 -3 33 C-3.474375 34.051875 -3.94875 35.10375 -4.4375 36.1875 C-5.69323741 39.10175851 -6.52234381 41.84746914 -7 45 C-7.33 45 -7.66 45 -8 45 C-8.88669069 25.98541076 -8.88669069 25.98541076 -4.171875 17.49609375 C-2.46244779 13.85501378 -2.34960566 10.38853901 -2.23828125 6.41015625 C-1.98422228 3.84041223 -1.29017289 2.21539648 0 0 Z " fill="#231D34" transform="translate(8,14)"/>
<path d="M0 0 C7.68421053 -0.29554656 7.68421053 -0.29554656 11 2 C11.33 2.66 11.66 3.32 12 4 C9.03 3.67 6.06 3.34 3 3 C3 3.66 3 4.32 3 5 C3.77085938 5.02578125 4.54171875 5.0515625 5.3359375 5.078125 C6.84027344 5.16320312 6.84027344 5.16320312 8.375 5.25 C9.37273438 5.29640625 10.37046875 5.3428125 11.3984375 5.390625 C14 6 14 6 15.3515625 7.859375 C16 10 16 10 16 13 C16.66 13 17.32 13 18 13 C18 13.66 18 14.32 18 15 C17.01 15.33 16.02 15.66 15 16 C13.33289654 17.49985609 13.33289654 17.49985609 12 19 C11.7525 17.88625 11.505 16.7725 11.25 15.625 C10.40634018 11.95791272 10.40634018 11.95791272 7.9375 10.6875 C7.298125 10.460625 6.65875 10.23375 6 10 C5.67 9.34 5.34 8.68 5 8 C5.33 7.34 5.66 6.68 6 6 C3.36 6.33 0.72 6.66 -2 7 C-1.67 6.34 -1.34 5.68 -1 5 C-0.34 5 0.32 5 1 5 C1 4.34 1 3.68 1 3 C0.34 2.67 -0.32 2.34 -1 2 C-0.67 1.34 -0.34 0.68 0 0 Z " fill="#090B10" transform="translate(23,0)"/>
<path d="M0 0 C2.01822917 0.06510417 4.03645833 0.13020833 6.0546875 0.1953125 C6.3846875 0.8553125 6.7146875 1.5153125 7.0546875 2.1953125 C4.7446875 2.5253125 2.4346875 2.8553125 0.0546875 3.1953125 C0.0546875 3.8553125 0.0546875 4.5153125 0.0546875 5.1953125 C-0.2753125 5.5253125 -0.6053125 5.8553125 -0.9453125 6.1953125 C-0.6153125 7.1853125 -0.2853125 8.1753125 0.0546875 9.1953125 C1.0446875 9.5253125 2.0346875 9.8553125 3.0546875 10.1953125 C2.7246875 13.1653125 2.3946875 16.1353125 2.0546875 19.1953125 C4.6946875 19.1953125 7.3346875 19.1953125 10.0546875 19.1953125 C9.0546875 21.1953125 9.0546875 21.1953125 6.3046875 22.3828125 C3.01046958 23.20636698 1.26447045 23.13936631 -1.9453125 22.1953125 C-1.9453125 21.2053125 -1.9453125 20.2153125 -1.9453125 19.1953125 C-3.2653125 19.1953125 -4.5853125 19.1953125 -5.9453125 19.1953125 C-5.4503125 17.7103125 -5.4503125 17.7103125 -4.9453125 16.1953125 C-3.6253125 16.1953125 -2.3053125 16.1953125 -0.9453125 16.1953125 C-1.2753125 13.5553125 -1.6053125 10.9153125 -1.9453125 8.1953125 C-2.9353125 7.8653125 -3.9253125 7.5353125 -4.9453125 7.1953125 C-3.87057023 0.38861147 -3.87057023 0.38861147 0 0 Z " fill="#3B464F" transform="translate(20.9453125,7.8046875)"/>
<path d="M0 0 C1.485 0.99 1.485 0.99 3 2 C3.82757813 1.70351562 4.65515625 1.40703125 5.5078125 1.1015625 C10.39400889 -0.43972092 14.80974984 0.03182587 19.875 0.375 C21.33679687 0.46007812 21.33679687 0.46007812 22.828125 0.546875 C25.2195783 0.68754872 27.60985226 0.8388736 30 1 C28.68359375 2.97265625 28.68359375 2.97265625 26 5 C22.35078712 5.59728405 18.75165181 5.51171396 15.0625 5.4375 C13.5784668 5.44813477 13.5784668 5.44813477 12.06445312 5.45898438 C6.93573177 5.41414686 3.15076634 5.37978166 -1 2 C-0.67 1.34 -0.34 0.68 0 0 Z " fill="#F17B7F" transform="translate(7,65)"/>
<path d="M0 0 C1.98 0 3.96 0 6 0 C6.33 0.99 6.66 1.98 7 3 C8.98 3 10.96 3 13 3 C13.33 5.31 13.66 7.62 14 10 C9.125 9.125 9.125 9.125 8 8 C5.98035801 7.92755947 3.95832876 7.91622812 1.9375 7.9375 C0.83277344 7.94652344 -0.27195312 7.95554687 -1.41015625 7.96484375 C-2.26480469 7.97644531 -3.11945312 7.98804688 -4 8 C-3.67 7.01 -3.34 6.02 -3 5 C-2.01 5 -1.02 5 0 5 C0 3.35 0 1.7 0 0 Z " fill="#1A1112" transform="translate(27,17)"/>
<path d="M0 0 C1.32 0.33 2.64 0.66 4 1 C4.33 2.98 4.66 4.96 5 7 C3.23669281 8.5088401 1.46409603 10.0068298 -0.3125 11.5 C-1.29863281 12.3353125 -2.28476563 13.170625 -3.30078125 14.03125 C-6 16 -6 16 -9 16 C-9.33 16.66 -9.66 17.32 -10 18 C-10 16.68 -10 15.36 -10 14 C-9.34 14 -8.68 14 -8 14 C-7.67 13.01 -7.34 12.02 -7 11 C-6.67 10.01 -6.34 9.02 -6 8 C-5.01 7.67 -4.02 7.34 -3 7 C-1.28432339 3.49705129 -1.28432339 3.49705129 0 0 Z " fill="#86454B" transform="translate(11,40)"/>
<path d="M0 0 C3.62641594 1.20880531 4.25833555 2.68715291 6.01953125 5.953125 C7.58663265 9.2246833 8.78380574 12.58307327 10 16 C10.33 16.66 10.66 17.32 11 18 C11.23553948 22.23971058 11.32845886 25.36178302 9 29 C8.34 27.35 7.68 25.7 7 24 C6.34 24 5.68 24 5 24 C4.67 22.35 4.34 20.7 4 19 C4.66 19 5.32 19 6 19 C5.3783476 16.76989746 4.7525397 14.54095304 4.125 12.3125 C3.77695312 11.07113281 3.42890625 9.82976563 3.0703125 8.55078125 C2.18442444 5.61183146 1.19798549 2.82228113 0 0 Z " fill="#514E53" transform="translate(43,6)"/>
<path d="M0 0 C2.06183633 -0.08150744 4.12461349 -0.1394194 6.1875 -0.1875 C7.33605469 -0.22230469 8.48460937 -0.25710937 9.66796875 -0.29296875 C13.27039199 0.02377421 15.09366839 0.91466602 18 3 C17.67 3.99 17.34 4.98 17 6 C13.9375 7.1875 13.9375 7.1875 11 8 C11 7.34 11 6.68 11 6 C8.36 6 5.72 6 3 6 C3 4.68 3 3.36 3 2 C2.01 2 1.02 2 0 2 C0 1.34 0 0.68 0 0 Z " fill="#171A32" transform="translate(46,0)"/>
<path d="M0 0 C5.61 0 11.22 0 17 0 C17 1.65 17 3.3 17 5 C16 6 16 6 13.1875 6.125 C10.57164058 6.02241728 8.4806638 5.76328117 6 5 C6 4.01 6 3.02 6 2 C5.34 2 4.68 2 4 2 C4 2.99 4 3.98 4 5 C1.69 5 -0.62 5 -3 5 C-3 4.34 -3 3.68 -3 3 C-2.34 3 -1.68 3 -1 3 C-0.67 2.01 -0.34 1.02 0 0 Z " fill="#A6A09D" transform="translate(36,58)"/>
<path d="M0 0 C1.74271938 2.297221 3.39911152 4.59866729 5 7 C5.99 6.67 6.98 6.34 8 6 C9.99961564 5.96079185 12.00049364 5.95556653 14 6 C14.33 6.99 14.66 7.98 15 9 C15.66 9 16.32 9 17 9 C17 9.66 17 10.32 17 11 C18.32 11 19.64 11 21 11 C21 13.64 21 16.28 21 19 C20.67 17.68 20.34 16.36 20 15 C18.02 15 16.04 15 14 15 C14 14.34 14 13.68 14 13 C13.34 12.67 12.68 12.34 12 12 C12.66 11.67 13.32 11.34 14 11 C12.35 9.68 10.7 8.36 9 7 C9 7.66 9 8.32 9 9 C4.25 11 4.25 11 2 11 C0.80712589 7.12315913 0 4.08378077 0 0 Z " fill="#A28585" transform="translate(49,10)"/>
<path d="M0 0 C0.33 0 0.66 0 1 0 C1 3.33333333 1 6.66666667 1 10 C1.31478446 11.33783393 1.64587656 12.67203709 2 14 C2 14.66 2 15.32 2 16 C3.32 16 4.64 16 6 16 C6 17.32 6 18.64 6 20 C3.525 19.01 3.525 19.01 1 18 C1 17.34 1 16.68 1 16 C0.34 16 -0.32 16 -1 16 C-0.67 17.98 -0.34 19.96 0 22 C-1.32 22.33 -2.64 22.66 -4 23 C-3.505 21.515 -3.505 21.515 -3 20 C-2.7993303 14.88292253 -3.29091095 10.05225946 -4 5 C-2.68 4.34 -1.36 3.68 0 3 C0 2.01 0 1.02 0 0 Z " fill="#ECCCC1" transform="translate(18,31)"/>
<path d="M0 0 C1.69382812 0.11794922 1.69382812 0.11794922 3.421875 0.23828125 C6.25 0.6875 6.25 0.6875 8.25 2.6875 C7.92028521 5.98464793 7.6273161 7.3101839 5.25 9.6875 C2.33047432 9.67001781 -0.47297885 9.54805367 -3.375 9.3125 C-4.17679688 9.25578125 -4.97859375 9.1990625 -5.8046875 9.140625 C-7.78715498 8.99902018 -9.76869051 8.84447741 -11.75 8.6875 C-11.75 8.3575 -11.75 8.0275 -11.75 7.6875 C-9.77 7.6875 -7.79 7.6875 -5.75 7.6875 C-5.42 6.3675 -5.09 5.0475 -4.75 3.6875 C-4.75 4.6775 -4.75 5.6675 -4.75 6.6875 C-2.11 6.6875 0.53 6.6875 3.25 6.6875 C3.58 5.0375 3.91 3.3875 4.25 1.6875 C3.35796875 1.78289063 2.4659375 1.87828125 1.546875 1.9765625 C-0.20882812 2.14285156 -0.20882812 2.14285156 -2 2.3125 C-3.16015625 2.42851563 -4.3203125 2.54453125 -5.515625 2.6640625 C-8.68872091 2.68705595 -10.13317244 2.38455154 -12.75 0.6875 C-8.3589763 -0.19735781 -4.46251697 -0.34445696 0 0 Z " fill="#2A1B1B" transform="translate(48.75,56.3125)"/>
<path d="M0 0 C0.33 0.66 0.66 1.32 1 2 C1.99 1.67 2.98 1.34 4 1 C6.7839183 2.39195915 6.97898997 4.15575779 8 7 C6.02 7.99 4.04 8.98 2 10 C1.34 9.34 0.68 8.68 0 8 C-0.66 7.731875 -1.32 7.46375 -2 7.1875 C-4.67871871 5.59701076 -5.083405 3.90255082 -6 1 C-4 0 -4 0 0 0 Z " fill="#EB3746" transform="translate(7,58)"/>
<path d="M0 0 C0.99 0.33 1.98 0.66 3 1 C3 1.66 3 2.32 3 3 C4.32 3.33 5.64 3.66 7 4 C3.94152152 4.54372951 1.11227195 5 -2 5 C-1.67 7.31 -1.34 9.62 -1 12 C0.98 12.66 2.96 13.32 5 14 C4.67 14.99 4.34 15.98 4 17 C2.35 17.33 0.7 17.66 -1 18 C-1.86555948 15.90049414 -2.71711277 13.7952093 -3.5625 11.6875 C-4.27599609 9.92986328 -4.27599609 9.92986328 -5.00390625 8.13671875 C-6 5 -6 5 -5 2 C-5 2.66 -5 3.32 -5 4 C-3.35 3.34 -1.7 2.68 0 2 C0 1.34 0 0.68 0 0 Z " fill="#DFBCB2" transform="translate(58,17)"/>
<path d="M0 0 C0.33 0 0.66 0 1 0 C1.79810624 8.17615507 -0.17373452 13.812087 -4 21 C-4.33 21 -4.66 21 -5 21 C-5.10826289 18.5821288 -5.18739789 16.16912444 -5.25 13.75 C-5.28351562 13.06808594 -5.31703125 12.38617188 -5.3515625 11.68359375 C-5.4200164 8.15821773 -5.33160653 6.40058069 -3.046875 3.640625 C-2.37140625 3.09921875 -1.6959375 2.5578125 -1 2 C-0.67 1.34 -0.34 0.68 0 0 Z " fill="#0F142E" transform="translate(5,19)"/>
<path d="M0 0 C-2 3 -2 3 -3.625 4.5625 C-5.23040755 5.90934248 -5.23040755 5.90934248 -5 8 C-7.64 8 -10.28 8 -13 8 C-13.33 6.68 -13.66 5.36 -14 4 C-13.01 4.33 -12.02 4.66 -11 5 C-11 4.01 -11 3.02 -11 2 C-7.60159802 -1.80621022 -4.70109533 -0.99446247 0 0 Z " fill="#D6A796" transform="translate(42,48)"/>
<path d="M0 0 C0.33 0.99 0.66 1.98 1 3 C2.98 3 4.96 3 7 3 C4.74259377 5.33524782 2.7194239 7.18705073 0 9 C-0.99 9 -1.98 9 -3 9 C-3 7.68 -3 6.36 -3 5 C-4.32 5 -5.64 5 -7 5 C-7.33 3.68 -7.66 2.36 -8 1 C-5.29120665 -0.35439668 -2.99066732 -0.06501451 0 0 Z " fill="#DEB1A5" transform="translate(27,42)"/>
<path d="M0 0 C0.99 0.33 1.98 0.66 3 1 C3 1.99 3 2.98 3 4 C3.61875 3.814375 4.2375 3.62875 4.875 3.4375 C7 3 7 3 9 4 C9.33 2.68 9.66 1.36 10 0 C10 0.99 10 1.98 10 3 C11.5778125 2.9690625 11.5778125 2.9690625 13.1875 2.9375 C16.32704904 2.98896802 18.96883396 3.26517187 22 4 C21.67 4.66 21.34 5.32 21 6 C17.87507749 6.05791844 14.75029234 6.09356746 11.625 6.125 C10.73554688 6.14175781 9.84609375 6.15851563 8.9296875 6.17578125 C8.07890625 6.18222656 7.228125 6.18867187 6.3515625 6.1953125 C5.17327881 6.21102295 5.17327881 6.21102295 3.97119141 6.22705078 C2 6 2 6 0 4 C0 2.68 0 1.36 0 0 Z " fill="#251218" transform="translate(14,60)"/>
<path d="M0 0 C-0.33 1.98 -0.66 3.96 -1 6 C-1.969375 6.309375 -2.93875 6.61875 -3.9375 6.9375 C-6.84065792 7.69523342 -6.84065792 7.69523342 -8 9 C-9.66617115 9.04063832 -11.33388095 9.042721 -13 9 C-13 7.68 -13 6.36 -13 5 C-12.278125 4.731875 -11.55625 4.46375 -10.8125 4.1875 C-7.95860702 3.06767588 -7.95860702 3.06767588 -5.375 1.375 C-3 0 -3 0 0 0 Z " fill="#FCD8CA" transform="translate(36,27)"/>
<path d="M0 0 C0 1.32 0 2.64 0 4 C2.64 4 5.28 4 8 4 C7 6 7 6 4.25 7.1875 C0.95578208 8.01105448 -0.79021705 7.94405381 -4 7 C-4 6.01 -4 5.02 -4 4 C-5.32 4 -6.64 4 -8 4 C-7.67 3.01 -7.34 2.02 -7 1 C-4.52260646 0.09162237 -2.66420516 0 0 0 Z " fill="#C2827D" transform="translate(23,23)"/>
<path d="M0 0 C0.66 0 1.32 0 2 0 C3 3 3 3 1.5625 6.0625 C1.046875 7.031875 0.53125 8.00125 0 9 C0 9.66 0 10.32 0 11 C-0.66 11 -1.32 11 -2 11 C-2 11.99 -2 12.98 -2 14 C-3.875 13.875 -3.875 13.875 -6 13 C-7.25 9.9375 -7.25 9.9375 -8 7 C-4.125 7.875 -4.125 7.875 -3 9 C-3 7.68 -3 6.36 -3 5 C-2.67 4.01 -2.34 3.02 -2 2 C-1.34 2 -0.68 2 0 2 C0 1.34 0 0.68 0 0 Z " fill="#E64E59" transform="translate(67,27)"/>
<path d="M0 0 C0.66 0.33 1.32 0.66 2 1 C2 2.32 2 3.64 2 5 C1.01 5 0.02 5 -1 5 C-2.77673572 6.15663059 -2.77673572 6.15663059 -4 8 C-4.28750318 10.18526972 -4.28750318 10.18526972 -4.0625 12.5 C-3.82428182 16.1648951 -3.83915759 16.75873639 -6 20 C-7 19 -7 19 -7.08984375 15.76171875 C-7.04576889 14.40341165 -6.99465798 13.04531948 -6.9375 11.6875 C-6.93556641 11.01009766 -6.93363281 10.33269531 -6.93164062 9.63476562 C-6.83984375 7.63671875 -6.83984375 7.63671875 -6 4 C-2.94140625 1.51953125 -2.94140625 1.51953125 0 0 Z " fill="#0B0F15" transform="translate(15,10)"/>
<path d="M0 0 C0.99 0.33 1.98 0.66 3 1 C3.12375 2.093125 3.2475 3.18625 3.375 4.3125 C3.75464801 8.07381802 3.75464801 8.07381802 6 11 C5.01 11.66 4.02 12.32 3 13 C0 12 0 12 -1.6875 9.625 C-3 7 -3 7 -3 4 C-1.68 3.67 -0.36 3.34 1 3 C0.67 2.01 0.34 1.02 0 0 Z " fill="#DA545E" transform="translate(60,41)"/>
<path d="M0 0 C0.99 0.33 1.98 0.66 3 1 C2.01 1.495 2.01 1.495 1 2 C0.64984951 3.66321482 0.31802943 5.33034549 0 7 C-0.99 8.485 -0.99 8.485 -2 10 C-2.99 10 -3.98 10 -5 10 C-5.12375 10.61875 -5.2475 11.2375 -5.375 11.875 C-6 14 -6 14 -8 16 C-6.40909091 6.22727273 -6.40909091 6.22727273 -5 2 C-4.67 2.66 -4.34 3.32 -4 4 C-3.01 4 -2.02 4 -1 4 C-0.67 2.68 -0.34 1.36 0 0 Z " fill="#5E4654" transform="translate(10,38)"/>
<path d="M0 0 C1.06734375 0.04640625 2.1346875 0.0928125 3.234375 0.140625 C4.31203125 0.17671875 5.3896875 0.2128125 6.5 0.25 C7.72976562 0.31960937 7.72976562 0.31960937 8.984375 0.390625 C8.654375 1.710625 8.324375 3.030625 7.984375 4.390625 C3.034375 4.390625 -1.915625 4.390625 -7.015625 4.390625 C-3.015625 0.390625 -3.015625 0.390625 0 0 Z " fill="#F7DCD3" transform="translate(40.015625,65.609375)"/>
<path d="M0 0 C0.66 0 1.32 0 2 0 C2 0.66 2 1.32 2 2 C3.32 1.34 4.64 0.68 6 0 C6.66 1.98 7.32 3.96 8 6 C7.01 6.495 7.01 6.495 6 7 C5.27840576 8.64363134 4.60648579 10.31050386 4 12 C3.01 12 2.02 12 1 12 C1.50603992 9.83125748 1.99983813 8.00032373 3 6 C2.34 6 1.68 6 1 6 C0.67 4.02 0.34 2.04 0 0 Z " fill="#8C8C92" transform="translate(38,7)"/>
<path d="M0 0 C1.32 0.33 2.64 0.66 4 1 C4.22179212 4.25295114 4.28601103 6.42797793 2.8125 9.375 C1 11 1 11 -1.6875 11.25 C-2.450625 11.1675 -3.21375 11.085 -4 11 C-3.34 10.01 -2.68 9.02 -2 8 C-2.30840599 5.84725052 -2.30840599 5.84725052 -3 4 C-1.68 4 -0.36 4 1 4 C0.67 2.68 0.34 1.36 0 0 Z " fill="#EE646C" transform="translate(66,53)"/>
<path d="M0 0 C0.99 0 1.98 0 3 0 C4.42041821 2.84083641 4.31452272 4.85477278 4 8 C2 10.375 2 10.375 0 12 C-0.98120464 8.94736336 -0.98120464 7.05263664 0 4 C-0.66 4 -1.32 4 -2 4 C-1.34 2.68 -0.68 1.36 0 0 Z " fill="#EDC0B6" transform="translate(44,25)"/>
<path d="M0 0 C0.33 0.99 0.66 1.98 1 3 C2.29355827 4.37195574 3.62298702 5.71182656 5 7 C4.01 7.33 3.02 7.66 2 8 C2 7.34 2 6.68 2 6 C1.34 6 0.68 6 0 6 C-0.33 6.66 -0.66 7.32 -1 8 C-1 7.01 -1 6.02 -1 5 C-2.0725 5.020625 -3.145 5.04125 -4.25 5.0625 C-7.14790424 5.0142016 -9.28612141 4.86844115 -12 4 C-12 3.34 -12 2.68 -12 2 C-11.07767578 2.03480469 -11.07767578 2.03480469 -10.13671875 2.0703125 C-8.92435547 2.09738281 -8.92435547 2.09738281 -7.6875 2.125 C-6.48673828 2.15980469 -6.48673828 2.15980469 -5.26171875 2.1953125 C-2.71611424 2.15817322 -2.71611424 2.15817322 0 0 Z " fill="#3A2728" transform="translate(38,1)"/>
<path d="M0 0 C3.22265625 5.2734375 3.22265625 5.2734375 4 7 C3.67 7.66 3.34 8.32 3 9 C0.00667261 8.0022242 -0.94766315 7.2477975 -3 5 C-2.34 6.65 -1.68 8.3 -1 10 C-2.32 9.34 -3.64 8.68 -5 8 C-5 5.69 -5 3.38 -5 1 C-2 0 -2 0 0 0 Z " fill="#695451" transform="translate(54,43)"/>
<path d="M0 0 C1.32 0 2.64 0 4 0 C4.33 2.64 4.66 5.28 5 8 C3.02 8.33 1.04 8.66 -1 9 C-0.67 6.03 -0.34 3.06 0 0 Z " fill="#F4DBD2" transform="translate(15,16)"/>
<path d="M0 0 C0.33 1.32 0.66 2.64 1 4 C6.1693489 3.59443869 6.1693489 3.59443869 11 2 C10 5 10 5 8 6 C5.6670134 6.04022391 3.33293334 6.04320247 1 6 C0.67 7.32 0.34 8.64 0 10 C-2 8 -2 8 -2.125 4.375 C-2.08375 3.26125 -2.0425 2.1475 -2 1 C-1.34 0.67 -0.68 0.34 0 0 Z " fill="#863345" transform="translate(48,2)"/>
<path d="M0 0 C1.65 0 3.3 0 5 0 C4.01 1.485 4.01 1.485 3 3 C-0.125 3.1875 -0.125 3.1875 -3 3 C-2.67 3.763125 -2.34 4.52625 -2 5.3125 C-1 8 -1 8 -1 11 C-2.65 11.33 -4.3 11.66 -6 12 C-6 8.09567131 -5.31626692 5.61973402 -4 2 C-2.68 2 -1.36 2 0 2 C0 1.34 0 0.68 0 0 Z " fill="#CF9F94" transform="translate(24,29)"/>
<path d="M0 0 C-0.33 0.99 -0.66 1.98 -1 3 C-4.0625 4.1875 -4.0625 4.1875 -7 5 C-7 4.34 -7 3.68 -7 3 C-9.64 3 -12.28 3 -15 3 C-13.34858624 1.03100667 -12.36784958 0.09329518 -9.84375 -0.546875 C-9.0703125 -0.61390625 -8.296875 -0.6809375 -7.5 -0.75 C-6.7265625 -0.82734375 -5.953125 -0.9046875 -5.15625 -0.984375 C-3 -1 -3 -1 0 0 Z " fill="#1B2846" transform="translate(64,3)"/>
<path d="M0 0 C2 3 2 3 1.75 5.125 C1 7 1 7 -1 8 C-1 9.98 -1 11.96 -1 14 C-1.66 14 -2.32 14 -3 14 C-3 9.71 -3 5.42 -3 1 C-2.01 0.67 -1.02 0.34 0 0 Z " fill="#423534" transform="translate(51,37)"/>
<path d="M0 0 C0.33 0.99 0.66 1.98 1 3 C1.99 3.33 2.98 3.66 4 4 C4.6875 6.0625 4.6875 6.0625 5 8 C6.32 8.33 7.64 8.66 9 9 C8.67 9.66 8.34 10.32 8 11 C7.01 11 6.02 11 5 11 C5.33 11.66 5.66 12.32 6 13 C5.01 13 4.02 13 3 13 C-0.42857143 4.57142857 -0.42857143 4.57142857 0 0 Z " fill="#D9938C" transform="translate(56,32)"/>
<path d="M0 0 C4.21878192 -0.19622241 7.17010894 0.19769832 11 2 C11 3.65 11 5.3 11 7 C9.68 7 8.36 7 7 7 C7 6.34 7 5.68 7 5 C6.34 5 5.68 5 5 5 C4.67 4.34 4.34 3.68 4 3 C1.97536745 2.34786708 1.97536745 2.34786708 0 2 C0 1.34 0 0.68 0 0 Z " fill="#6F667A" transform="translate(59,14)"/>
<path d="M0 0 C0.33 0 0.66 0 1 0 C1 4.33333333 1 8.66666667 1 13 C-1.5 11.8125 -1.5 11.8125 -4 10 C-4.3125 7.3125 -4.3125 7.3125 -4 5 C-2.68 4.34 -1.36 3.68 0 3 C0 2.01 0 1.02 0 0 Z " fill="#FCE7DD" transform="translate(18,31)"/>
<path d="M0 0 C0.99 0.33 1.98 0.66 3 1 C2.67 3.64 2.34 6.28 2 9 C1.01 8.67 0.02 8.34 -1 8 C-1 7.34 -1 6.68 -1 6 C-1.99 5.67 -2.98 5.34 -4 5 C-3.67 3.68 -3.34 2.36 -3 1 C-2.01 1.33 -1.02 1.66 0 2 C0 1.34 0 0.68 0 0 Z " fill="#C28D82" transform="translate(41,28)"/>
<path d="M0 0 C0.66 0.66 1.32 1.32 2 2 C1.525625 2.495 1.05125 2.99 0.5625 3.5 C-1.62167907 6.99468651 -1.65913911 9.90966936 -2 14 C-1.34 14.33 -0.68 14.66 0 15 C-3.465 16.485 -3.465 16.485 -7 18 C-6.67 16.68 -6.34 15.36 -6 14 C-5.67 14.33 -5.34 14.66 -5 15 C-3.73762269 12.47524538 -3.90143596 10.68799534 -3.9375 7.875 C-3.94652344 6.96492188 -3.95554687 6.05484375 -3.96484375 5.1171875 C-3.97644531 4.41851562 -3.98804688 3.71984375 -4 3 C-3.01 3 -2.02 3 -1 3 C-0.67 2.01 -0.34 1.02 0 0 Z " fill="#3C2F31" transform="translate(14,14)"/>
<path d="M0 0 C2 3 2 3 2 6 C0.25 7.60546875 0.25 7.60546875 -2 9.1875 C-2.7425 9.71730469 -3.485 10.24710938 -4.25 10.79296875 C-4.8275 11.19128906 -5.405 11.58960938 -6 12 C-6.33 10.68 -6.66 9.36 -7 8 C-6.21625 7.4225 -5.4325 6.845 -4.625 6.25 C-2.19952756 4.17102363 -1.14305583 2.90959667 0 0 Z " fill="#B55D5C" transform="translate(14,41)"/>
<path d="M0 0 C0.66 1.32 1.32 2.64 2 4 C-0.31 4.33 -2.62 4.66 -5 5 C-5 4.67 -5 4.34 -5 4 C-7.31 3.67 -9.62 3.34 -12 3 C-12 2.34 -12 1.68 -12 1 C-7.95858806 0.36605303 -4.0934693 -0.12404452 0 0 Z " fill="#DE9C91" transform="translate(35,24)"/>
<path d="M0 0 C3.3938635 1.13128783 3.56440606 1.50169353 5.125 4.5 C6.64336454 7.73982771 6.64336454 7.73982771 8 9 C8.04063832 10.66617115 8.042721 12.33388095 8 14 C7.01 14.33 6.02 14.66 5 15 C4.72285156 14.08476562 4.44570313 13.16953125 4.16015625 12.2265625 C3.61681641 10.44378906 3.61681641 10.44378906 3.0625 8.625 C2.70285156 7.44164062 2.34320313 6.25828125 1.97265625 5.0390625 C1.12423726 2.12073182 1.12423726 2.12073182 0 0 Z " fill="#2D3542" transform="translate(43,6)"/>
<path d="M0 0 C3.76912568 2.43169399 3.76912568 2.43169399 4.8125 5 C5 7 5 7 4 10 C1.9375 10.6875 1.9375 10.6875 0 11 C-0.19406478 9.35492782 -0.38007935 7.70890406 -0.5625 6.0625 C-0.66691406 5.14597656 -0.77132813 4.22945312 -0.87890625 3.28515625 C-0.91886719 2.53105469 -0.95882813 1.77695313 -1 1 C-0.67 0.67 -0.34 0.34 0 0 Z " fill="#100B0D" transform="translate(23,12)"/>
<path d="M0 0 C0.20625 0.61875 0.4125 1.2375 0.625 1.875 C2.54775888 4.84653645 4.66594527 5.13024659 8 6 C7.67 6.99 7.34 7.98 7 9 C5.35 9.33 3.7 9.66 2 10 C0.39644899 6.49223216 -0.22036864 3.85645121 0 0 Z " fill="#FBD8C9" transform="translate(55,25)"/>
<path d="M0 0 C3.96 0 7.92 0 12 0 C12 0.66 12 1.32 12 2 C12.66 2.33 13.32 2.66 14 3 C9 3 4 3 -1 3 C-0.67 2.01 -0.34 1.02 0 0 Z " fill="#5A413D" transform="translate(24,22)"/>
<path d="M0 0 C-0.33 2.31 -0.66 4.62 -1 7 C-2.98 6.34 -4.96 5.68 -7 5 C-7.33 5.99 -7.66 6.98 -8 8 C-8.33 6.68 -8.66 5.36 -9 4 C-3.375 0 -3.375 0 0 0 Z " fill="#572829" transform="translate(21,55)"/>
<path d="M0 0 C1.8125 0.8125 1.8125 0.8125 3.8125 2.8125 C-0.41699995 5.22935712 -3.31085991 6.16083144 -8.1875 5.8125 C-7.1875 2.8125 -7.1875 2.8125 -4.875 1.0625 C-2.1875 -0.1875 -2.1875 -0.1875 0 0 Z " fill="#F05C69" transform="translate(9.1875,53.1875)"/>
<path d="M0 0 C0.33 1.32 0.66 2.64 1 4 C-5.625 4.25 -5.625 4.25 -9 2 C-9 1.34 -9 0.68 -9 0 C-5.67465243 -1.10844919 -3.37817425 -0.84454356 0 0 Z " fill="#DB2A3F" transform="translate(61,54)"/>
<path d="M0 0 C1.98 0.66 3.96 1.32 6 2 C6 2.99 6 3.98 6 5 C5.48953125 4.83628906 4.9790625 4.67257813 4.453125 4.50390625 C1.18708172 3.83301519 -1.9186747 3.9066544 -5.25 3.9375 C-7.14492188 3.95103516 -7.14492188 3.95103516 -9.078125 3.96484375 C-10.04234375 3.97644531 -11.0065625 3.98804688 -12 4 C-10 2 -10 2 -7.6171875 1.8046875 C-6.71226563 1.82789063 -5.80734375 1.85109375 -4.875 1.875 C-3.50988281 1.90207031 -3.50988281 1.90207031 -2.1171875 1.9296875 C-1.41851562 1.95289063 -0.71984375 1.97609375 0 2 C0 1.34 0 0.68 0 0 Z " fill="#50526F" transform="translate(64,9)"/>
<path d="M0 0 C0.66 0 1.32 0 2 0 C2.33 1.65 2.66 3.3 3 5 C-0.96 6.98 -4.92 8.96 -9 11 C-8.67 10.01 -8.34 9.02 -8 8 C-7.401875 7.731875 -6.80375 7.46375 -6.1875 7.1875 C-3.08896494 5.50543811 -1.897883 2.91008727 0 0 Z " fill="#45383B" transform="translate(21,0)"/>
<path d="M0 0 C-1.375 2 -1.375 2 -4 4 C-7.3580469 4.35791096 -10.63536357 4.23115823 -14 4 C-12.625 2.5 -12.625 2.5 -11 1 C-10.34 1 -9.68 1 -9 1 C-9 1.66 -9 2.32 -9 3 C-8.62875 2.505 -8.2575 2.01 -7.875 1.5 C-5.25305607 -0.59755514 -3.26157528 -0.21743835 0 0 Z " fill="#E58E8A" transform="translate(37,66)"/>
<path d="M0 0 C0.66 0 1.32 0 2 0 C2.33 1.32 2.66 2.64 3 4 C5.97 4.495 5.97 4.495 9 5 C9 5.33 9 5.66 9 6 C6.70890403 6.08075665 4.41700733 6.13907731 2.125 6.1875 C0.21074219 6.23970703 0.21074219 6.23970703 -1.7421875 6.29296875 C-2.81726562 6.19628906 -3.89234375 6.09960938 -5 6 C-5.66 5.01 -6.32 4.02 -7 3 C-3.98968256 2.06576355 -3.13349732 1.95550089 0 3 C0 2.01 0 1.02 0 0 Z " fill="#61504B" transform="translate(40,60)"/>
<path d="M0 0 C0.33 0 0.66 0 1 0 C1 3.3 1 6.6 1 10 C-0.65 10.33 -2.3 10.66 -4 11 C-4 10.01 -4 9.02 -4 8 C-3.34 8 -2.68 8 -2 8 C-2.33 7.01 -2.66 6.02 -3 5 C-2.34 5 -1.68 5 -1 5 C-0.67 3.35 -0.34 1.7 0 0 Z " fill="#FC7882" transform="translate(69,30)"/>
<path d="M0 0 C1.65 0 3.3 0 5 0 C5 0.66 5 1.32 5 2 C4.34 2 3.68 2 3 2 C3 3.98 3 5.96 3 8 C2.01 8.33 1.02 8.66 0 9 C-0.33 8.34 -0.66 7.68 -1 7 C-1.66 7.66 -2.32 8.32 -3 9 C-2.30058404 5.85262818 -1.23921302 2.97411124 0 0 Z " fill="#9A6E61" transform="translate(40,36)"/>
<path d="M0 0 C0.79921875 0.01804687 1.5984375 0.03609375 2.421875 0.0546875 C3.02515625 0.07789063 3.6284375 0.10109375 4.25 0.125 C3.92 1.115 3.59 2.105 3.25 3.125 C2.66992188 3.10179687 2.08984375 3.07859375 1.4921875 3.0546875 C-3.36411166 2.94249577 -7.17932395 3.24985085 -11.75 5.125 C-8.24137427 1.26551169 -5.23049958 -0.15383822 0 0 Z M-13.75 4.125 C-13.09 4.785 -12.43 5.445 -11.75 6.125 C-13.73 7.115 -13.73 7.115 -15.75 8.125 C-15.09 6.805 -14.43 5.485 -13.75 4.125 Z " fill="#161D26" transform="translate(24.75,5.875)"/>
<path d="M0 0 C0.20086443 3.71599191 0.1519437 4.77208445 -2 8 C-4.97 7.505 -4.97 7.505 -8 7 C-7.67 6.34 -7.34 5.68 -7 5 C-6.34 5.33 -5.68 5.66 -5 6 C-5 5.01 -5 4.02 -5 3 C-1.55555556 0 -1.55555556 0 0 0 Z " fill="#C18D84" transform="translate(36,47)"/>
<path d="M0 0 C7.68421053 -0.29554656 7.68421053 -0.29554656 11 2 C11.33 2.66 11.66 3.32 12 4 C7.71 3.67 3.42 3.34 -1 3 C-0.67 2.01 -0.34 1.02 0 0 Z " fill="#19151A" transform="translate(23,0)"/>
<path d="M0 0 C3.3 0.33 6.6 0.66 10 1 C9.67 2.32 9.34 3.64 9 5 C8.34 5 7.68 5 7 5 C6.67 5.66 6.34 6.32 6 7 C5.67 5.68 5.34 4.36 5 3 C4.01 3.495 4.01 3.495 3 4 C3 3.34 3 2.68 3 2 C1.68 2.33 0.36 2.66 -1 3 C-0.67 2.01 -0.34 1.02 0 0 Z " fill="#332827" transform="translate(26,56)"/>
<path d="M0 0 C2.31 0.33 4.62 0.66 7 1 C6.67 1.66 6.34 2.32 6 3 C-0.27 3 -6.54 3 -13 3 C-13 2.67 -13 2.34 -13 2 C-8.71 2 -4.42 2 0 2 C0 1.34 0 0.68 0 0 Z " fill="#4E2C2A" transform="translate(29,63)"/>
<path d="M0 0 C2.31 0 4.62 0 7 0 C7.33 0.99 7.66 1.98 8 3 C5.29120665 4.35439668 2.99066732 4.06501451 0 4 C0 2.68 0 1.36 0 0 Z " fill="#BC5956" transform="translate(57,59)"/>
<path d="M0 0 C4.29 0 8.58 0 13 0 C12.67 0.66 12.34 1.32 12 2 C7.33710678 2.85486376 3.62372246 3.30042194 -1 2 C-0.67 1.34 -0.34 0.68 0 0 Z " fill="#672A32" transform="translate(30,0)"/>
<path d="M0 0 C0.66 0 1.32 0 2 0 C2.33 0.66 2.66 1.32 3 2 C4.97522846 3.04808041 6.97481509 4.0520411 9 5 C9 5.66 9 6.32 9 7 C6.75 7.3125 6.75 7.3125 4 7 C0 2.89189189 0 2.89189189 0 0 Z " fill="#B4323F" transform="translate(1,59)"/>
<path d="M0 0 C0.99 0.33 1.98 0.66 3 1 C3 1.66 3 2.32 3 3 C4.65 3.33 6.3 3.66 8 4 C5 6 5 6 1 6 C1 6.66 1 7.32 1 8 C0.34 8 -0.32 8 -1 8 C-1 7.01 -1 6.02 -1 5 C-0.01 5 0.98 5 2 5 C1.34 3.35 0.68 1.7 0 0 Z " fill="#9E404A" transform="translate(51,48)"/>
<path d="M0 0 C0.66 0 1.32 0 2 0 C2.66 3.63 3.32 7.26 4 11 C3.01 10.01 2.02 9.02 1 8 C1 6.68 1 5.36 1 4 C-0.65 4 -2.3 4 -4 4 C-3.67 3.34 -3.34 2.68 -3 2 C-2.01 2 -1.02 2 0 2 C0 1.34 0 0.68 0 0 Z " fill="#A09C97" transform="translate(46,17)"/>
<path d="M0 0 C1.98 0 3.96 0 6 0 C6.33 0.66 6.66 1.32 7 2 C6.34 2 5.68 2 5 2 C5 2.99 5 3.98 5 5 C3.35 5 1.7 5 0 5 C0 3.35 0 1.7 0 0 Z " fill="#201717" transform="translate(27,17)"/>
<path d="M0 0 C3.5 -0.375 3.5 -0.375 7 0 C7.66 0.99 8.32 1.98 9 3 C5.37 3 1.74 3 -2 3 C-1.34 2.01 -0.68 1.02 0 0 Z " fill="#414363" transform="translate(56,9)"/>
<path d="M0 0 C0.33 0.66 0.66 1.32 1 2 C0.0625 4.125 0.0625 4.125 -1 6 C-2.98 6 -4.96 6 -7 6 C-6.875 4.125 -6.875 4.125 -6 2 C-2.9375 0.75 -2.9375 0.75 0 0 Z " fill="#AF7068" transform="translate(55,64)"/>
<path d="M0 0 C3.63 0.33 7.26 0.66 11 1 C10.01 2.485 10.01 2.485 9 4 C8.34 4 7.68 4 7 4 C7 3.34 7 2.68 7 2 C4.69 2.33 2.38 2.66 0 3 C0 2.01 0 1.02 0 0 Z " fill="#F3AAA8" transform="translate(56,63)"/>
<path d="M0 0 C2.31 0 4.62 0 7 0 C6.34 1.65 5.68 3.3 5 5 C3.68 5 2.36 5 1 5 C0.67 3.35 0.34 1.7 0 0 Z " fill="#726A68" transform="translate(46,58)"/>
<path d="M0 0 C0.66 0 1.32 0 2 0 C2 0.66 2 1.32 2 2 C3.98 2.66 5.96 3.32 8 4 C6.1875 5.5625 6.1875 5.5625 4 7 C3.01 6.67 2.02 6.34 1 6 C0.67 4.02 0.34 2.04 0 0 Z " fill="#6C504B" transform="translate(17,47)"/>
<path d="M0 0 C0.99 0.33 1.98 0.66 3 1 C2.525625 2.051875 2.05125 3.10375 1.5625 4.1875 C0.30676259 7.10175851 -0.52234381 9.84746914 -1 13 C-1.33 13 -1.66 13 -2 13 C-2 9.04 -2 5.08 -2 1 C-1.34 0.67 -0.68 0.34 0 0 Z " fill="#3E273C" transform="translate(2,46)"/>
<path d="M0 0 C2.86724686 0.57344937 3.8614515 0.8614515 6 3 C6 4.32 6 5.64 6 7 C4.125 6.875 4.125 6.875 2 6 C0.75 2.9375 0.75 2.9375 0 0 Z " fill="#F03241" transform="translate(59,34)"/>
<path d="M0 0 C2.64 0 5.28 0 8 0 C6.8125 2 6.8125 2 5 4 C2.3125 4.25 2.3125 4.25 0 4 C0 2.68 0 1.36 0 0 Z " fill="#F9E2D8" transform="translate(23,32)"/>
<path d="M0 0 C0 0.33 0 0.66 0 1 C-2.08185451 1.22262606 -4.16560426 1.42757926 -6.25 1.625 C-7.41015625 1.74101563 -8.5703125 1.85703125 -9.765625 1.9765625 C-12.93872091 1.99955595 -14.38317244 1.69705154 -17 0 C-11.23073111 -1.40333568 -5.81856895 -0.67296616 0 0 Z " fill="#0F0807" transform="translate(53,57)"/>
<path d="M0 0 C2.49505962 2.49505962 2.35948376 3.67328888 2.625 7.125 C2.69976562 8.03507812 2.77453125 8.94515625 2.8515625 9.8828125 C2.92503906 10.93082031 2.92503906 10.93082031 3 12 C-0.11259019 9.18862822 -0.64900977 7.21188278 -1 3 C-0.67 2.01 -0.34 1.02 0 0 Z " fill="#7F7472" transform="translate(54,28)"/>
<path d="M0 0 C0.66 0.33 1.32 0.66 2 1 C2 3.64 2 6.28 2 9 C0.68 9.33 -0.64 9.66 -2 10 C-2.33 8.35 -2.66 6.7 -3 5 C-2.34 5 -1.68 5 -1 5 C-0.67 3.35 -0.34 1.7 0 0 Z " fill="#373A40" transform="translate(50,20)"/>
<path d="M0 0 C0.33 0 0.66 0 1 0 C1.18451025 9.41002278 1.18451025 9.41002278 0 14 C-0.33 14 -0.66 14 -1 14 C-1.22331199 12.41870971 -1.42804644 10.83478911 -1.625 9.25 C-1.74101563 8.36828125 -1.85703125 7.4865625 -1.9765625 6.578125 C-2.00207817 3.77140122 -1.44843844 2.36615134 0 0 Z " fill="#211A1D" transform="translate(8,14)"/>
<path d="M0 0 C0.33 0.66 0.66 1.32 1 2 C1.66 2.33 2.32 2.66 3 3 C2.50168276 6.68754757 1.89932357 8.60490662 -1 11 C-1.66 9.68 -2.32 8.36 -3 7 C-1.68 7 -0.36 7 1 7 C0.67 4.69 0.34 2.38 0 0 Z " fill="#493B3C" transform="translate(40,20)"/>
<path d="M0 0 C0.99 0.33 1.98 0.66 3 1 C2.01 1.495 2.01 1.495 1 2 C1.33 3.32 1.66 4.64 2 6 C-0.97 5.67 -3.94 5.34 -7 5 C-6.34 4.01 -5.68 3.02 -5 2 C-5 2.66 -5 3.32 -5 4 C-3.01508358 3.73323796 -3.01508358 3.73323796 -1 3 C-0.67 2.01 -0.34 1.02 0 0 Z " fill="#B27661" transform="translate(31,58)"/>
<path d="M0 0 C-0.66 1.32 -1.32 2.64 -2 4 C-4.97 3.505 -4.97 3.505 -8 3 C-8 2.34 -8 1.68 -8 1 C-5.29120665 -0.35439668 -2.99066732 -0.06501451 0 0 Z " fill="#B25257" transform="translate(27,42)"/>
<path d="M0 0 C0.66 0 1.32 0 2 0 C1.51421457 3.12290635 1.0013988 5.99580359 0 9 C-0.66 9 -1.32 9 -2 9 C-1.125 1.125 -1.125 1.125 0 0 Z " fill="#422E41" transform="translate(8,33)"/>
<path d="M0 0 C0.66 0 1.32 0 2 0 C2.33 0.99 2.66 1.98 3 3 C2.01 4.485 2.01 4.485 1 6 C1.66 6.33 2.32 6.66 3 7 C2.34 8.32 1.68 9.64 1 11 C-0.98362069 8.08291076 -0.9876191 6.87619096 -0.625 3.25 C-0.41875 2.1775 -0.2125 1.105 0 0 Z " fill="#ED8077" transform="translate(63,26)"/>
<path d="M0 0 C2.31 0.66 4.62 1.32 7 2 C6.67 3.32 6.34 4.64 6 6 C3.5625 5.25 3.5625 5.25 1 4 C0.1875 1.875 0.1875 1.875 0 0 Z " fill="#F0A79C" transform="translate(56,25)"/>
<path d="M0 0 C0.33 0 0.66 0 1 0 C1.05422947 1.4370809 1.09289723 2.87475462 1.125 4.3125 C1.14820313 5.11300781 1.17140625 5.91351563 1.1953125 6.73828125 C1 9 1 9 -1 12 C-2 11 -2 11 -2.1875 8.25 C-2.00187851 5.03256076 -1.36114502 2.89243317 0 0 Z " fill="#0D090B" transform="translate(10,18)"/>
<path d="M0 0 C2.75 0.25 2.75 0.25 5 1 C4.67 1.99 4.34 2.98 4 4 C1.36 4 -1.28 4 -4 4 C-2.3125 1.9375 -2.3125 1.9375 0 0 Z " fill="#EAC1B8" transform="translate(37,66)"/>
<path d="M0 0 C2.97 0 5.94 0 9 0 C8.67 0.99 8.34 1.98 8 3 C7.34 3 6.68 3 6 3 C6 2.34 6 1.68 6 1 C5.21625 1.495 4.4325 1.99 3.625 2.5 C1 4 1 4 -1 4 C-0.67 2.68 -0.34 1.36 0 0 Z " fill="#E95D63" transform="translate(22,66)"/>
<path d="M0 0 C1.32 0 2.64 0 4 0 C4.33 0.66 4.66 1.32 5 2 C5.99 2 6.98 2 8 2 C7.67 2.66 7.34 3.32 7 4 C5.02 4 3.04 4 1 4 C0.67 2.68 0.34 1.36 0 0 Z " fill="#FB4658" transform="translate(3,58)"/>
<path d="M0 0 C0.99 0.33 1.98 0.66 3 1 C2.01 1.495 2.01 1.495 1 2 C0.64984951 3.66321482 0.31802943 5.33034549 0 7 C-0.99 8.485 -0.99 8.485 -2 10 C-2.66 9.67 -3.32 9.34 -4 9 C-2.68 6.03 -1.36 3.06 0 0 Z " fill="#644148" transform="translate(10,38)"/>
<path d="M0 0 C2.97 0 5.94 0 9 0 C9.33 0.99 9.66 1.98 10 3 C8.02 3.33 6.04 3.66 4 4 C3.67 3.34 3.34 2.68 3 2 C2.01 1.34 1.02 0.68 0 0 Z " fill="#8C3922" transform="translate(20,58)"/>
<path d="M0 0 C0.99 0.33 1.98 0.66 3 1 C2.74438677 3.3431213 2.40729228 5.67843403 2 8 C1.01 8.495 1.01 8.495 0 9 C0 6.03 0 3.06 0 0 Z " fill="#DEB0A5" transform="translate(37,33)"/>
<path d="M0 0 C0.99 0 1.98 0 3 0 C3 0.66 3 1.32 3 2 C4.98 2 6.96 2 9 2 C9 2.66 9 3.32 9 4 C8.34 4 7.68 4 7 4 C6.67 4.66 6.34 5.32 6 6 C5.67 5.01 5.34 4.02 5 3 C4.01 3.33 3.02 3.66 2 4 C1.34 2.68 0.68 1.36 0 0 Z " fill="#C0928A" transform="translate(60,23)"/>
<path d="M0 0 C1.98 0 3.96 0 6 0 C6 1.32 6 2.64 6 4 C4.68 4.33 3.36 4.66 2 5 C1.34 3.35 0.68 1.7 0 0 Z " fill="#555D69" transform="translate(41,21)"/>
<path d="M0 0 C1.485 0.99 1.485 0.99 3 2 C3.99 1.67 4.98 1.34 6 1 C6.33 2.32 6.66 3.64 7 5 C4.125 4.6875 4.125 4.6875 1 4 C0.34 3.01 -0.32 2.02 -1 1 C-0.67 0.67 -0.34 0.34 0 0 Z " fill="#F76F78" transform="translate(7,65)"/>
<path d="M0 0 C0.33 0.66 0.66 1.32 1 2 C0.06421005 4.35981813 -0.93347808 6.69631264 -2 9 C-2.99 9 -3.98 9 -5 9 C-4.34 7.35 -3.68 5.7 -3 4 C-2.34 4 -1.68 4 -1 4 C-0.67 2.68 -0.34 1.36 0 0 Z " fill="#2C253A" transform="translate(7,32)"/>
<path d="M0 0 C1.32 0 2.64 0 4 0 C4.33 2.31 4.66 4.62 5 7 C4.34 6.67 3.68 6.34 3 6 C3 5.01 3 4.02 3 3 C2.01 3.33 1.02 3.66 0 4 C0 2.68 0 1.36 0 0 Z " fill="#E9D0C7" transform="translate(15,16)"/>
<path d="M0 0 C0.33 0 0.66 0 1 0 C1 2.31 1 4.62 1 7 C-0.65 7 -2.3 7 -4 7 C-4 5.68 -4 4.36 -4 3 C-2.515 3.99 -2.515 3.99 -1 5 C-0.67 3.35 -0.34 1.7 0 0 Z " fill="#F3D1C5" transform="translate(36,36)"/>
<path d="M0 0 C0.99 0.33 1.98 0.66 3 1 C2.67 2.65 2.34 4.3 2 6 C1.01 5.67 0.02 5.34 -1 5 C-1.33 4.01 -1.66 3.02 -2 2 C-1.34 2 -0.68 2 0 2 C0 1.34 0 0.68 0 0 Z " fill="#9F655D" transform="translate(41,28)"/>
<path d="M0 0 C2.31 0.33 4.62 0.66 7 1 C7 2.32 7 3.64 7 5 C5.68 5 4.36 5 3 5 C3 4.34 3 3.68 3 3 C2.34 3 1.68 3 1 3 C0.67 2.01 0.34 1.02 0 0 Z " fill="#7E6D7C" transform="translate(63,16)"/>
<path d="M0 0 C0.99 0.33 1.98 0.66 3 1 C2.67 2.65 2.34 4.3 2 6 C1.01 6 0.02 6 -1 6 C-1.042721 4.33388095 -1.04063832 2.66617115 -1 1 C-0.67 0.67 -0.34 0.34 0 0 Z " fill="#3E3433" transform="translate(21,17)"/>
<path d="M0 0 C0.99 0.99 1.98 1.98 3 3 C2.67 3.66 2.34 4.32 2 5 C-0.33333333 5 -2.66666667 5 -5 5 C-3.35 3.35 -1.7 1.7 0 0 Z " fill="#9D6D58" transform="translate(41,49)"/>
<path d="M0 0 C2.64 0 5.28 0 8 0 C7.67 0.66 7.34 1.32 7 2 C4.67843403 2.40729228 2.3431213 2.74438677 0 3 C0 2.01 0 1.02 0 0 Z " fill="#4A2D2D" transform="translate(23,27)"/>
<path d="M0 0 C2.4375 1.1875 2.4375 1.1875 3.4375 3.1875 C1.4575 3.1875 -0.5225 3.1875 -2.5625 3.1875 C-2.5625 2.5275 -2.5625 1.8675 -2.5625 1.1875 C-3.2225 0.8575 -3.8825 0.5275 -4.5625 0.1875 C-2.5625 -0.8125 -2.5625 -0.8125 0 0 Z " fill="#AB8885" transform="translate(65.5625,21.8125)"/>
<path d="M0 0 C2 1.375 2 1.375 4 3 C4 3.66 4 4.32 4 5 C2.68 5.33 1.36 5.66 0 6 C-0.38218767 4.34385343 -0.71395102 2.67542976 -1 1 C-0.67 0.67 -0.34 0.34 0 0 Z " fill="#0C1218" transform="translate(23,12)"/>
<path d="M0 0 C2.375 0.25 2.375 0.25 5 1 C6.3125 3.0625 6.3125 3.0625 7 5 C6.01 5 5.02 5 4 5 C4 4.34 4 3.68 4 3 C3.34 3 2.68 3 2 3 C1.67 3.66 1.34 4.32 1 5 C0.67 3.35 0.34 1.7 0 0 Z " fill="#485056" transform="translate(36,4)"/>
<path d="M0 0 C2.31 0 4.62 0 7 0 C7 0.66 7 1.32 7 2 C4.69 2.66 2.38 3.32 0 4 C0 2.68 0 1.36 0 0 Z " fill="#CF8180" transform="translate(15,53)"/>
<path d="M0 0 C2.29013653 3.4352048 2.17842973 4.985331 2 9 C0.68 9.33 -0.64 9.66 -2 10 C-1.34 6.7 -0.68 3.4 0 0 Z " fill="#ECBCA9" transform="translate(16,44)"/>
<path d="M0 0 C0.66 1.65 1.32 3.3 2 5 C-0.02045442 4.39816251 -2.02111039 3.72693904 -4 3 C-4.33 2.34 -4.66 1.68 -5 1 C-2 0 -2 0 0 0 Z " fill="#873940" transform="translate(54,43)"/>
<path d="M0 0 C0.66 0 1.32 0 2 0 C2 2.64 2 5.28 2 8 C1.67 7.01 1.34 6.02 1 5 C0.34 5 -0.32 5 -1 5 C-1.33 4.01 -1.66 3.02 -2 2 C-1.34 2 -0.68 2 0 2 C0 1.34 0 0.68 0 0 Z " fill="#1D110F" transform="translate(45,36)"/>
<path d="M0 0 C1.67542976 0.28604898 3.34385343 0.61781233 5 1 C5 3.64 5 6.28 5 9 C4.67 9 4.34 9 4 9 C3.731875 8.05125 3.46375 7.1025 3.1875 6.125 C2.25013412 2.74732727 2.25013412 2.74732727 -1 1 C-0.67 0.67 -0.34 0.34 0 0 Z " fill="#987A7F" transform="translate(65,20)"/>
<path d="M0 0 C0.66 0.33 1.32 0.66 2 1 C1.67 2.65 1.34 4.3 1 6 C0.01 6 -0.98 6 -2 6 C-1.49396008 3.83125748 -1.00016187 2.00032373 0 0 Z " fill="#66778A" transform="translate(41,13)"/>
<path d="M0 0 C3 1 3 1 4.75 3.3125 C6 6 6 6 5 10 C3.35 6.7 1.7 3.4 0 0 Z " fill="#150C0F" transform="translate(43,6)"/>
<path d="M0 0 C0.66 0 1.32 0 2 0 C2.33 2.97 2.66 5.94 3 9 C2.01 8.34 1.02 7.68 0 7 C-0.1875 3.375 -0.1875 3.375 0 0 Z " fill="#D2474F" transform="translate(46,3)"/>
</svg>
